<svg width="72" height="90" viewBox="0 0 72 90" fill="none" xmlns="http://www.w3.org/2000/svg">
<path d="M72 63.125C72 66.8333 71.2917 70.3125 69.875 73.5625C68.4583 76.8125 66.5208 79.6667 64.0625 82.125C61.6458 84.5417 58.8125 86.4583 55.5625 87.875C52.3125 89.2917 48.8333 90 45.125 90H0.3125V0.375H45.125C48.8333 0.375 52.3125 1.08333 55.5625 2.5C58.8125 3.91667 61.6458 5.85417 64.0625 8.3125C66.5208 10.7292 68.4583 13.5625 69.875 16.8125C71.2917 20.0625 72 23.5417 72 27.25C72 28.9167 71.7708 30.625 71.3125 32.375C70.8542 34.125 70.2083 35.8125 69.375 37.4375C68.5417 39.0625 67.5417 40.5417 66.375 41.875C65.2083 43.2083 63.9167 44.3125 62.5 45.1875C63.9583 45.9792 65.2708 47.0625 66.4375 48.4375C67.6042 49.7708 68.6042 51.25 69.4375 52.875C70.2708 54.5 70.8958 56.2083 71.3125 58C71.7708 59.75 72 61.4583 72 63.125ZM18.25 72.0625H45.125C46.375 72.0625 47.5417 71.8333 48.625 71.375C49.7083 70.9167 50.6458 70.2917 51.4375 69.5C52.2708 68.6667 52.9167 67.7083 53.375 66.625C53.8333 65.5417 54.0625 64.375 54.0625 63.125C54.0625 61.875 53.8333 60.7083 53.375 59.625C52.9167 58.5417 52.2708 57.6042 51.4375 56.8125C50.6458 55.9792 49.7083 55.3333 48.625 54.875C47.5417 54.4167 46.375 54.1875 45.125 54.1875H18.25V72.0625ZM18.25 36.25H45.125C46.375 36.25 47.5417 36.0208 48.625 35.5625C49.7083 35.1042 50.6458 34.4792 51.4375 33.6875C52.2708 32.8542 52.9167 31.8958 53.375 30.8125C53.8333 29.6875 54.0625 28.5 54.0625 27.25C54.0625 26 53.8333 24.8333 53.375 23.75C52.9167 22.6667 52.2708 21.7292 51.4375 20.9375C50.6458 20.1042 49.7083 19.4583 48.625 19C47.5417 18.5417 46.375 18.3125 45.125 18.3125H18.25V36.25Z" fill="url(#paint0_linear_36_2)"/>
<defs>
<linearGradient id="paint0_linear_36_2" x1="78" y1="69.4576" x2="-8" y2="17.5424" gradientUnits="userSpaceOnUse">
<stop stop-color="#24EB5C"/>
<stop offset="1" stop-color="#747BFF"/>
</linearGradient>
</defs>
</svg>
