<svg width="281" height="279" viewBox="0 0 281 279" fill="none" xmlns="http://www.w3.org/2000/svg">
<path d="M80.8791 265.413C52.3628 252.194 29.1537 229.821 14.9916 201.896C0.829505 173.968 -3.46069 142.116 2.81229 111.47C9.08526 80.825 25.5562 53.171 49.5707 32.9646C73.5854 12.7584 103.745 1.17633 135.19 0.0848663C166.636 -1.0066 197.534 8.45627 222.91 26.9483C248.284 45.4405 266.656 71.885 275.063 102.021C283.473 132.157 281.427 164.228 269.26 193.069C257.092 221.909 235.509 245.838 207.991 260.999L140.08 139.229L80.8791 265.413Z" fill="#172136"/>
<path d="M207.867 261.073C188.567 271.678 167.021 277.607 144.981 278.371C122.942 279.137 101.032 274.72 81.0347 265.479L140.09 139.228L207.867 261.073Z" fill="white"/>
<path d="M61.2784 81.8745H220.407V148.704C220.407 166.08 216.299 179.149 208.081 187.909C200.012 196.822 189.554 201.277 176.704 201.277C168.486 201.277 161.314 199.273 155.188 195.263C149.211 191.4 144.653 186.056 141.516 179.224C138.677 186.648 134.195 192.514 128.069 196.822C121.942 201.277 114.695 203.505 106.328 203.505C92.2827 203.505 81.2257 199.05 73.1571 190.139C65.238 181.229 61.2784 168.382 61.2784 151.6V81.8745ZM191.048 113.507H156.533V148.481C156.533 154.867 157.952 159.768 160.791 163.184C163.779 166.749 168.112 168.529 173.789 168.529C178.87 168.529 182.979 166.823 186.117 163.408C189.403 160.14 191.048 155.163 191.048 148.481V113.507ZM126.947 113.507H90.639V150.708C90.639 157.392 92.2078 162.368 95.3461 165.634C98.4835 169.05 102.966 170.757 108.793 170.757C114.322 170.757 118.73 169.05 122.017 165.634C125.304 162.368 126.947 157.392 126.947 150.708V113.507Z" fill="white"/>
</svg>
