<svg width="337" height="364" viewBox="0 0 337 364" fill="none" xmlns="http://www.w3.org/2000/svg">
<path d="M336.619 182.024C336.619 220.257 331.424 252.464 321.035 278.646C310.645 304.827 295.061 324.983 274.282 339.112C253.503 352.826 227.945 360.722 197.608 362.8C188.049 363.216 178.283 363.424 168.309 363.424C157.92 363.424 148.154 363.216 139.011 362.8C108.258 360.722 82.7002 352.203 62.3369 337.242C41.5579 322.281 25.9737 301.71 15.5842 275.529C5.19475 249.347 1.5804e-06 218.179 0 182.024C-1.5804e-06 145.868 5.19474 114.7 15.5842 88.5183C25.9737 62.3368 41.5579 41.7657 62.3368 26.8048C82.7002 11.844 108.258 3.32465 139.011 1.24676C148.154 0.415587 157.92 4.54139e-07 168.309 0C178.283 -4.35972e-07 188.049 0.415585 197.608 1.24676C227.945 3.32465 253.503 11.4284 274.282 25.5581C295.061 39.2722 310.645 59.22 321.035 85.4015C331.424 111.583 336.619 143.79 336.619 182.024ZM236.88 182.024C236.88 169.972 233.555 162.491 226.906 159.582C219.841 156.673 209.036 154.803 194.491 153.972C188.257 153.556 179.53 153.349 168.309 153.349C157.089 153.349 148.362 153.556 142.128 153.972C128.414 154.803 118.024 156.673 110.96 159.582C103.479 162.491 99.739 169.972 99.739 182.024C99.739 193.66 103.479 201.14 110.96 204.465C118.024 207.374 128.414 209.244 142.128 210.075C148.362 210.491 157.089 210.699 168.309 210.699C179.53 210.699 188.257 210.491 194.491 210.075C209.036 209.244 219.841 207.374 226.906 204.465C233.555 201.14 236.88 193.66 236.88 182.024Z" fill="#4F76F6" fill-opacity="0.4"/>
<path d="M302.757 196.527C302.757 227.162 298.595 252.969 290.27 273.947C281.946 294.925 269.459 311.075 252.809 322.397C236.16 333.385 215.681 339.712 191.373 341.377C183.714 341.71 175.889 341.876 167.897 341.876C159.573 341.876 151.747 341.71 144.422 341.377C119.781 339.712 99.302 332.886 82.9855 320.898C66.3361 308.911 53.8492 292.428 45.5245 271.45C37.1998 250.471 33.0375 225.497 33.0374 196.527C33.0374 167.557 37.1998 142.583 45.5245 121.605C53.8492 100.627 66.3361 84.144 82.9855 72.1565C99.302 60.1689 119.781 53.3427 144.422 51.6778C151.747 51.0118 159.573 50.6788 167.897 50.6788C175.889 50.6788 183.714 51.0118 191.373 51.6778C215.681 53.3427 236.16 59.8359 252.809 71.1575C269.459 82.1461 281.946 98.1295 290.27 119.108C298.595 140.086 302.757 165.892 302.757 196.527ZM222.84 196.527C222.84 186.871 220.176 180.877 214.849 178.546C209.188 176.215 200.53 174.717 188.876 174.051C183.881 173.718 176.888 173.551 167.897 173.551C158.907 173.551 151.914 173.718 146.919 174.051C135.931 174.717 127.606 176.215 121.945 178.546C115.951 180.877 112.954 186.871 112.954 196.527C112.954 205.851 115.951 211.845 121.945 214.509C127.606 216.84 135.931 218.338 146.919 219.004C151.914 219.337 158.907 219.503 167.897 219.503C176.888 219.503 183.881 219.337 188.876 219.004C200.53 218.338 209.188 216.84 214.849 214.509C220.176 211.845 222.84 205.851 222.84 196.527Z" fill="#4F76F6" fill-opacity="0.2"/>
<path d="M302.757 177.415C302.757 208.05 298.595 233.856 290.27 254.835C281.946 275.813 269.459 291.963 252.809 303.284C236.16 314.273 215.681 320.6 191.373 322.265C183.714 322.598 175.889 322.764 167.897 322.764C159.573 322.764 151.747 322.598 144.422 322.265C119.781 320.6 99.302 313.774 82.9855 301.786C66.3361 289.798 53.8492 273.316 45.5245 252.337C37.1998 231.359 33.0375 206.385 33.0374 177.415C33.0374 148.445 37.1998 123.471 45.5245 102.493C53.8492 81.5146 66.3361 65.0318 82.9855 53.0442C99.302 41.0567 119.781 34.2304 144.422 32.5655C151.747 31.8995 159.573 31.5665 167.897 31.5665C175.889 31.5665 183.714 31.8995 191.373 32.5655C215.681 34.2304 236.16 40.7237 252.809 52.0452C269.459 63.0338 281.946 79.0172 290.27 99.9955C298.595 120.974 302.757 146.78 302.757 177.415ZM222.84 177.415C222.84 167.758 220.176 161.765 214.849 159.434C209.188 157.103 200.53 155.604 188.876 154.938C183.881 154.605 176.888 154.439 167.897 154.439C158.907 154.439 151.914 154.605 146.919 154.938C135.931 155.604 127.606 157.103 121.945 159.434C115.951 161.765 112.954 167.758 112.954 177.415C112.954 186.739 115.951 192.732 121.945 195.396C127.606 197.727 135.931 199.226 146.919 199.892C151.914 200.225 158.907 200.391 167.897 200.391C176.888 200.391 183.881 200.225 188.876 199.892C200.53 199.226 209.188 197.727 214.849 195.396C220.176 192.732 222.84 186.739 222.84 177.415Z" fill="#4F76F6" fill-opacity="0.7"/>
</svg>
