<svg width="144" height="104" viewBox="0 0 144 104" fill="none" xmlns="http://www.w3.org/2000/svg">
<path d="M140.573 16.4948H92.0627C87.5262 16.4948 83.4533 15.1302 80.3804 12.5833L65.2033 0H27.9168C25.7137 0 23.3543 1.85938 22.7606 4.0625L0.427246 98.5573H10.5262V103.073H122.651C123.917 102.328 124.99 101.156 125.354 99.7917L143.557 20.5625C144.146 18.3594 142.781 16.4948 140.573 16.4948Z" fill="#353535"/>
<path d="M4.0625 103.859C1.86459 103.859 0 101.995 0 99.7917V15.3542C0 13.1459 1.86459 11.2865 4.0625 11.2865H41.3542L59.901 23.875C63.6615 26.4219 68.0885 27.7813 72.6354 27.7813H121.141C123.349 27.7813 125.208 29.6459 125.208 31.849V99.7917C125.208 101.995 123.349 103.859 121.141 103.859H4.0625Z" fill="#33B88F"/>
<path d="M112.917 36.9896C110.38 36.9896 108.333 39.0469 108.333 41.5834C108.333 44.1198 110.38 46.1771 112.917 46.1771C115.458 46.1771 117.505 44.1198 117.505 41.5834C117.505 39.0469 115.458 36.9896 112.917 36.9896Z" fill="#353535"/>
<path d="M98.2658 36.9896C95.7293 36.9896 93.6772 39.0469 93.6772 41.5834C93.6772 44.1198 95.7293 46.1771 98.2658 46.1771C100.802 46.1771 102.854 44.1198 102.854 41.5834C102.854 39.0469 100.802 36.9896 98.2658 36.9896Z" fill="#353535"/>
<path d="M11.979 75.2709L28.9478 92.2448L45.0415 76.1563L61.1248 92.2448L77.2134 76.1615L93.3019 92.2448L109.38 76.1563L125.229 91.9948V75.2709H11.979Z" fill="white"/>
<path d="M47.3542 46.0521C48.0677 44.099 48.474 41.9948 48.474 39.7969C48.474 29.6615 40.2604 21.4531 30.1354 21.4531C20.0104 21.4531 11.7969 29.6615 11.7969 39.7969C11.7969 41.9948 12.2083 44.099 12.9167 46.0521H47.3542Z" fill="white"/>
<path d="M37.6564 46.052C39.0679 44.3541 39.922 42.1718 39.922 39.7968C39.922 38.276 39.5418 36.8541 38.9325 35.5729C38.5887 37.1145 37.2762 38.2812 35.6356 38.2812C33.745 38.2812 32.2085 36.7448 32.2085 34.8541C32.2085 33.0885 33.547 31.6875 35.2606 31.4895C33.7658 30.5677 32.0158 30.0104 30.1356 30.0104C24.7345 30.0104 20.3491 34.3906 20.3491 39.7968C20.3491 42.1718 21.2033 44.3541 22.6147 46.052H37.6564Z" fill="#353535"/>
</svg>
