<svg width="64" height="84" viewBox="0 0 64 84" fill="none" xmlns="http://www.w3.org/2000/svg">
<mask id="mask0_47_26" style="mask-type:alpha" maskUnits="userSpaceOnUse" x="0" y="0" width="64" height="84">
<path d="M0 58.6416H25.3585V71.321C25.3585 78.323 19.6818 84 12.6792 84C5.67669 84 0 78.323 0 71.321V58.6416Z" fill="url(#paint0_linear_47_26)"/>
<path d="M0 29.3208H50.717C57.7195 29.3208 63.3962 34.9975 63.3962 42C63.3962 49.0026 57.7195 54.6793 50.717 54.6793H0V29.3208Z" fill="url(#paint1_linear_47_26)"/>
<path d="M0 20C0 8.9543 8.9543 0 20 0H50.717C57.7195 0 63.3962 5.6767 63.3962 12.6792C63.3962 19.6818 57.7195 25.3585 50.717 25.3585H0V20Z" fill="url(#paint2_linear_47_26)"/>
</mask>
<g mask="url(#mask0_47_26)">
<g filter="url(#filter0_d_47_26)">
<mask id="mask1_47_26" style="mask-type:alpha" maskUnits="userSpaceOnUse" x="0" y="0" width="64" height="84">
<path d="M0 58.6416H25.3585V71.321C25.3585 78.323 19.6818 84 12.6792 84C5.67669 84 0 78.323 0 71.321V58.6416Z" fill="black" fill-opacity="0.1"/>
<path d="M0 20C0 8.9543 8.9543 0 20 0H50.717C57.7195 0 63.3962 5.6767 63.3962 12.6792C63.3962 19.6818 57.7195 25.3585 50.717 25.3585H0V20Z" fill="black" fill-opacity="0.1"/>
<path d="M0 29.3208H50.717C57.7195 29.3208 63.3962 34.9975 63.3962 42C63.3962 49.0026 57.7195 54.6793 50.717 54.6793H0V29.3208Z" fill="black" fill-opacity="0.1"/>
</mask>
<g mask="url(#mask1_47_26)">
<path d="M1.33027 -21.842C11.2638 -31.537 36.4526 -21.842 36.4526 -21.842H1.33027C-1.10953 -19.4609 -2.62905 -15.91 -2.62905 -10.7585C-2.62905 15.3672 25.6715 24.8676 25.6715 43.0764C25.6715 60.901 -1.44849 71.898 -2.59185 96.119H36.4526C36.4526 96.119 -2.62905 123.037 -2.62905 97.703C-2.62905 97.169 -2.61647 96.641 -2.59185 96.119H-19.8115L-16.4424 -21.842H1.33027Z" fill="black" fill-opacity="0.1"/>
</g>
</g>
<g filter="url(#filter1_f_47_26)">
<path d="M-7.9244 96.6796C5.2054 96.6796 15.8492 86.0358 15.8492 72.906C15.8492 59.7762 5.2054 49.1324 -7.9244 49.1324C-21.0542 49.1324 -31.698 59.7762 -31.698 72.906C-31.698 86.0358 -21.0542 96.6796 -7.9244 96.6796Z" fill="#00C4B8"/>
</g>
<g filter="url(#filter2_f_47_26)">
<path d="M-7.9244 36.453C5.2054 36.453 15.8492 25.8092 15.8492 12.6794C15.8492 -0.450438 5.2054 -11.0942 -7.9244 -11.0942C-21.0542 -11.0942 -31.698 -0.450438 -31.698 12.6794C-31.698 25.8092 -21.0542 36.453 -7.9244 36.453Z" fill="#00C4B8"/>
</g>
</g>
<path d="M0 58.6416H25.3585V71.321C25.3585 78.323 19.6818 84 12.6792 84C5.67669 84 0 78.323 0 71.321V58.6416Z" fill="url(#paint3_linear_47_26)"/>
<path d="M0 29.3208H50.717C57.7195 29.3208 63.3962 34.9975 63.3962 42C63.3962 49.0026 57.7195 54.6793 50.717 54.6793H0V29.3208Z" fill="url(#paint4_linear_47_26)"/>
<path d="M0 20C0 8.9543 8.9543 0 20 0H50.717C57.7195 0 63.3962 5.6767 63.3962 12.6792C63.3962 19.6818 57.7195 25.3585 50.717 25.3585H0V20Z" fill="url(#paint5_linear_47_26)"/>
<defs>
<filter id="filter0_d_47_26" x="-2" y="-12" width="60.4526" height="108" filterUnits="userSpaceOnUse" color-interpolation-filters="sRGB">
<feFlood flood-opacity="0" result="BackgroundImageFix"/>
<feColorMatrix in="SourceAlpha" type="matrix" values="0 0 0 0 0 0 0 0 0 0 0 0 0 0 0 0 0 0 127 0" result="hardAlpha"/>
<feOffset dx="10"/>
<feGaussianBlur stdDeviation="6"/>
<feComposite in2="hardAlpha" operator="out"/>
<feColorMatrix type="matrix" values="0 0 0 0 0 0 0 0 0 0 0 0 0 0 0 0 0 0 0.25 0"/>
<feBlend mode="normal" in2="BackgroundImageFix" result="effect1_dropShadow_47_26"/>
<feBlend mode="normal" in="SourceGraphic" in2="effect1_dropShadow_47_26" result="shape"/>
</filter>
<filter id="filter1_f_47_26" x="-51.698" y="29.1324" width="87.5472" height="87.5472" filterUnits="userSpaceOnUse" color-interpolation-filters="sRGB">
<feFlood flood-opacity="0" result="BackgroundImageFix"/>
<feBlend mode="normal" in="SourceGraphic" in2="BackgroundImageFix" result="shape"/>
<feGaussianBlur stdDeviation="10" result="effect1_foregroundBlur_47_26"/>
</filter>
<filter id="filter2_f_47_26" x="-51.698" y="-31.0942" width="87.5472" height="87.5472" filterUnits="userSpaceOnUse" color-interpolation-filters="sRGB">
<feFlood flood-opacity="0" result="BackgroundImageFix"/>
<feBlend mode="normal" in="SourceGraphic" in2="BackgroundImageFix" result="shape"/>
<feGaussianBlur stdDeviation="10" result="effect1_foregroundBlur_47_26"/>
</filter>
<linearGradient id="paint0_linear_47_26" x1="25.4688" y1="70.861" x2="-0.00218295" y2="70.964" gradientUnits="userSpaceOnUse">
<stop stop-color="#00FFE1"/>
<stop offset="1" stop-color="#01E0C6"/>
</linearGradient>
<linearGradient id="paint1_linear_47_26" x1="63.6719" y1="41.5407" x2="-1.84092e-06" y2="42.1838" gradientUnits="userSpaceOnUse">
<stop stop-color="#00FFE1"/>
<stop offset="1" stop-color="#01E0C6"/>
</linearGradient>
<linearGradient id="paint2_linear_47_26" x1="63.6719" y1="12.2199" x2="-1.84092e-06" y2="12.863" gradientUnits="userSpaceOnUse">
<stop stop-color="#00FFE1"/>
<stop offset="1" stop-color="#01E0C6"/>
</linearGradient>
<linearGradient id="paint3_linear_47_26" x1="25.4688" y1="70.861" x2="-0.00218295" y2="70.964" gradientUnits="userSpaceOnUse">
<stop stop-color="#00E6CA"/>
<stop offset="1" stop-color="#00C4B8"/>
</linearGradient>
<linearGradient id="paint4_linear_47_26" x1="63.6719" y1="41.5407" x2="-1.84092e-06" y2="42.1838" gradientUnits="userSpaceOnUse">
<stop stop-color="#00E6CA"/>
<stop offset="1" stop-color="#00C4B8"/>
</linearGradient>
<linearGradient id="paint5_linear_47_26" x1="63.6719" y1="12.2199" x2="-1.84092e-06" y2="12.863" gradientUnits="userSpaceOnUse">
<stop stop-color="#00E6CA"/>
<stop offset="1" stop-color="#00C4B8"/>
</linearGradient>
</defs>
</svg>
