<svg width="126" height="126" viewBox="0 0 126 126" fill="none" xmlns="http://www.w3.org/2000/svg">
<path d="M28.5118 8.58525C23.2292 8.59257 18.165 10.6943 14.4297 14.4297C10.6943 18.165 8.59257 23.2292 8.58525 28.5118V97.4882C8.59321 102.773 10.6943 107.84 14.4287 111.579C18.1632 115.319 23.2268 117.427 28.5118 117.442H97.4882C102.778 117.434 107.849 115.33 111.589 111.589C115.33 107.849 117.434 102.778 117.442 97.4882V28.5118C117.427 23.2268 115.319 18.1632 111.579 14.4287C107.84 10.6943 102.773 8.59321 97.4882 8.58525H28.5118ZM97.4882 126H28.5118C20.9522 125.993 13.7044 122.986 8.359 117.641C3.01359 112.296 0.00732999 105.048 0 97.4882L0 28.5118C0.0152971 20.9547 3.02412 13.7115 8.3678 8.3678C13.7115 3.02412 20.9547 0.0152971 28.5118 0L97.4882 0C105.048 0.00732999 112.296 3.01359 117.641 8.359C122.986 13.7044 125.993 20.9522 126 28.5118V97.4882C126 105.05 122.996 112.302 117.649 117.649C112.302 122.996 105.05 126 97.4882 126Z" fill="#1652A1"/>
<path d="M99.6276 41.026C99.6276 43.1008 99.0124 45.129 97.8597 46.8542C96.7069 48.5794 95.0685 49.924 93.1516 50.718C91.2347 51.512 89.1254 51.7197 87.0905 51.3149C85.0555 50.9102 83.1863 49.911 81.7191 48.4439C80.252 46.9768 79.2529 45.1075 78.8481 43.0726C78.4433 41.0376 78.6511 38.9283 79.4451 37.0114C80.2391 35.0945 81.5837 33.4561 83.3088 32.3034C85.034 31.1507 87.0622 30.5354 89.1371 30.5354C91.9193 30.5354 94.5877 31.6406 96.555 33.608C98.5224 35.5754 99.6276 38.2437 99.6276 41.026Z" fill="#1652A1"/>
<path d="M97.9816 88.3492C97.9777 89.2802 97.789 90.2012 97.4264 91.0587C97.0639 91.9162 96.5346 92.6931 95.8695 93.3445C95.2043 93.9959 94.4164 94.5087 93.5515 94.8532C92.6865 95.1977 91.7618 95.367 90.831 95.3513H87.5791C85.7192 95.3513 83.9351 94.6146 82.6171 93.3023C81.2992 91.99 80.5548 90.2091 80.5468 88.3492V63.6833C80.5547 61.8207 81.2982 60.0366 82.6153 58.7195C83.9324 57.4024 85.7165 56.659 87.5791 56.651H90.831C92.6936 56.659 94.4777 57.4024 95.7948 58.7195C97.1119 60.0366 97.8553 61.8207 97.8633 63.6833V88.3492H97.9816Z" fill="#1652A1"/>
<path d="M73.4918 41.026C73.4918 43.1008 72.8765 45.129 71.7238 46.8542C70.5711 48.5794 68.9327 49.924 67.0158 50.718C65.0989 51.512 62.9896 51.7197 60.9546 51.3149C58.9196 50.9102 57.0504 49.911 55.5833 48.4439C54.1161 46.9768 53.117 45.1075 52.7122 43.0726C52.3074 41.0376 52.5152 38.9283 53.3092 37.0114C54.1032 35.0945 55.4478 33.4561 57.173 32.3034C58.8981 31.1507 60.9264 30.5354 63.0012 30.5354C65.7835 30.5354 68.4518 31.6406 70.4192 33.608C72.3865 35.5754 73.4918 38.2437 73.4918 41.026Z" fill="#1652A1"/>
<path d="M71.6998 88.3492C71.6998 90.2063 70.9621 91.9873 69.649 93.3005C68.3358 94.6136 66.5548 95.3513 64.6977 95.3513H61.3276C60.4055 95.3553 59.4917 95.1771 58.6387 94.827C57.7857 94.4769 57.0102 93.9618 56.3568 93.3112C55.7034 92.6606 55.1849 91.8873 54.8311 91.0358C54.4774 90.1843 54.2952 89.2713 54.2953 88.3492V63.6833C54.2953 61.8183 55.0362 60.0296 56.355 58.7107C57.6738 57.3919 59.4625 56.651 61.3276 56.651H64.6977C66.5576 56.659 68.3385 57.4034 69.6508 58.7214C70.9631 60.0393 71.6998 61.8235 71.6998 63.6833V88.3492Z" fill="#1652A1"/>
<path d="M47.2453 41.026C47.2453 43.1008 46.63 45.129 45.4773 46.8542C44.3246 48.5794 42.6862 49.924 40.7693 50.718C38.8524 51.512 36.7431 51.7197 34.7081 51.3149C32.6731 50.9102 30.8039 49.911 29.3368 48.4439C27.8696 46.9768 26.8705 45.1075 26.4657 43.0726C26.061 41.0376 26.2687 38.9283 27.0627 37.0114C27.8567 35.0945 29.2013 33.4561 30.9265 32.3034C32.6516 31.1507 34.6799 30.5354 36.7547 30.5354C39.537 30.5354 42.2053 31.6406 44.1727 33.608C46.14 35.5754 47.2453 38.2437 47.2453 41.026Z" fill="#1652A1"/>
<path d="M45.4457 88.3492C45.4458 89.2713 45.2636 90.1843 44.9099 91.0358C44.5561 91.8873 44.0376 92.6606 43.3842 93.3112C42.7308 93.9618 41.9553 94.4769 41.1023 94.827C40.2493 95.1771 39.3355 95.3553 38.4134 95.3513H35.1616C34.2395 95.3553 33.3257 95.1771 32.4727 94.827C31.6197 94.4769 30.8442 93.9618 30.1908 93.3112C29.5374 92.6606 29.0189 91.8873 28.6651 91.0358C28.3114 90.1843 28.1293 89.2713 28.1293 88.3492V63.6833C28.1293 61.8183 28.8702 60.0296 30.189 58.7107C31.5078 57.3919 33.2965 56.651 35.1616 56.651H38.5015C40.3666 56.651 42.1553 57.3919 43.4741 58.7107C44.7929 60.0296 45.5338 61.8183 45.5338 63.6833V88.3492H45.4457Z" fill="#1652A1"/>
</svg>
