<svg width="358" height="204" viewBox="0 0 358 204" fill="none" xmlns="http://www.w3.org/2000/svg">
<path d="M260.15 179.66C260.15 134.26 224.39 98.5001 178.99 98.5001C136.04 98.5001 101.71 130.5 98.14 172.41C97.8 176.4 97.8399 182.91 97.8399 186.92V196.1C97.8399 200.11 94.5899 203.36 90.5799 203.36H75.3399C71.3299 203.36 68.1899 199.98 66.7599 196.26C62.0999 187.12 58.83 181.51 48.95 181.45C39.86 181.15 33.8999 188.79 30.8299 196.27C29.3499 199.97 26.2099 203.36 22.2099 203.36H7.31995C3.30995 203.36 0.0599365 200.11 0.0599365 196.1V186.92C0.0599365 184.35 0.0799255 182.08 0.0799255 179.66C0.459926 170.4 0.609949 168.41 0.759949 166.41L0.769928 166.28C0.809928 165.91 0.849954 165.55 0.889954 165.18C0.929954 164.81 0.969928 164.44 1.01993 164.08C1.05993 163.71 1.10994 163.35 1.15994 162.98C1.20994 162.61 1.25994 162.25 1.30994 161.88C1.35994 161.51 1.40994 161.15 1.46994 160.78C1.51994 160.41 1.57994 160.05 1.62994 159.68C1.68994 159.31 1.74994 158.95 1.80994 158.59C1.86994 158.22 1.92993 157.86 1.98993 157.49C2.05993 157.13 2.11994 156.76 2.18994 156.4C2.25994 156.03 2.31995 155.67 2.38995 155.31C2.45995 154.95 2.52995 154.59 2.59995 154.22C2.66995 153.86 2.74995 153.49 2.81995 153.13C2.89995 152.77 2.96993 152.41 3.04993 152.04C3.12993 151.68 3.20995 151.32 3.28995 150.96C3.36995 150.6 3.44995 150.24 3.53995 149.88C3.61995 149.52 3.70993 149.16 3.79993 148.8C3.88993 148.44 3.97995 148.08 4.06995 147.72C4.15995 147.36 4.24995 147.01 4.34995 146.65C4.43995 146.29 4.53995 145.93 4.63995 145.58C4.73995 145.23 4.82993 144.87 4.92993 144.51C5.02993 144.15 5.12993 143.8 5.23993 143.44C5.33993 143.09 5.44993 142.73 5.54993 142.38C5.65993 142.02 5.76993 141.67 5.86993 141.32C5.97993 140.97 6.08995 140.61 6.19995 140.26C6.30995 139.91 6.42995 139.55 6.53995 139.2C6.65995 138.85 6.76995 138.5 6.88995 138.15C7.00995 137.8 7.12994 137.45 7.24994 137.1C7.36994 136.75 7.48993 136.4 7.61993 136.05C7.73993 135.7 7.86994 135.35 7.99994 135.01C8.12994 134.66 8.25995 134.31 8.38995 133.97C8.51995 133.62 8.64995 133.27 8.78995 132.93C8.91995 132.58 9.05994 132.24 9.18994 131.89C9.32994 131.55 9.45995 131.2 9.59995 130.86C9.73995 130.52 9.87993 130.17 10.0199 129.83C10.1599 129.49 10.3 129.15 10.45 128.81C10.59 128.47 10.74 128.13 10.89 127.79C11.04 127.45 11.1899 127.11 11.3299 126.77C11.4799 126.43 11.6299 126.09 11.7899 125.76C11.9399 125.42 12.0999 125.09 12.2499 124.75C12.4099 124.41 12.5699 124.08 12.7199 123.75C12.8799 123.41 13.04 123.08 13.2 122.75C13.36 122.42 13.5199 122.09 13.6899 121.75C13.8499 121.42 14.0199 121.09 14.1899 120.76C14.3499 120.43 14.5299 120.1 14.6899 119.78C14.8599 119.45 15.0299 119.12 15.2099 118.8C15.3899 118.47 15.5599 118.15 15.7299 117.82C15.8999 117.5 16.0799 117.17 16.2599 116.85C16.4399 116.52 16.6199 116.2 16.7999 115.88C16.9799 115.56 17.1599 115.23 17.3499 114.92C17.5299 114.6 17.7199 114.28 17.8999 113.96C18.0899 113.64 18.2799 113.32 18.4699 113.01C18.6599 112.69 18.8499 112.37 19.0399 112.06C19.2399 111.74 19.4299 111.43 19.6199 111.11C19.8199 110.8 20.0099 110.49 20.2099 110.17C20.3999 109.86 20.6099 109.55 20.8099 109.23C21.0099 108.92 21.2099 108.61 21.4099 108.3C21.6099 107.99 21.8199 107.68 22.0199 107.37C22.2299 107.07 22.44 106.76 22.64 106.45C22.85 106.14 23.0599 105.84 23.2599 105.53C23.4699 105.23 23.6899 104.93 23.8999 104.62C24.1099 104.32 24.3299 104.01 24.5499 103.71C24.7699 103.41 24.98 103.11 25.2 102.81C25.42 102.51 25.6399 102.21 25.8599 101.92C26.0799 101.63 26.2999 101.33 26.5299 101.04C26.7499 100.74 26.98 100.45 27.2 100.16C27.43 99.8701 27.6599 99.5701 27.8799 99.2801C28.1099 98.9901 28.3399 98.7001 28.5699 98.4101C28.7999 98.1201 29.0299 97.8401 29.2699 97.5501C29.4999 97.2601 29.7399 96.9801 29.9699 96.6901C30.1999 96.4101 30.4399 96.1201 30.6799 95.8401C30.9199 95.5601 31.1599 95.2801 31.3999 95.0001C31.6399 94.7201 31.8799 94.4401 32.1299 94.1601C32.3699 93.8801 32.6099 93.6001 32.8599 93.3301C33.1099 93.0601 33.3499 92.7801 33.5999 92.5101C33.8499 92.2301 34.0999 91.9601 34.3499 91.6901C34.5999 91.4201 34.8499 91.1401 35.0999 90.8801C35.3499 90.6101 35.5999 90.3401 35.8599 90.0701C36.1099 89.8101 36.3699 89.5401 36.6299 89.2701C36.8899 89.0001 37.1499 88.7401 37.3999 88.4701C37.6599 88.2101 37.9199 87.9501 38.1799 87.6801C38.4399 87.4201 38.6999 87.1601 38.9699 86.9001C39.2299 86.6401 39.4999 86.3801 39.7599 86.1201C40.0299 85.8701 40.2999 85.6101 40.5599 85.3601C40.8299 85.1001 41.0999 84.8501 41.3699 84.6001C41.6399 84.3501 41.9099 84.1001 42.1899 83.8501C42.4599 83.6001 42.7299 83.3501 43.0099 83.1001C43.2899 82.8501 43.5599 82.6101 43.8399 82.3601C44.1099 82.1101 44.39 81.8701 44.67 81.6301C44.95 81.3901 45.2299 81.1401 45.5099 80.9001C45.7899 80.6601 46.0699 80.4201 46.3499 80.1801C46.6399 79.9401 46.92 79.7101 47.2 79.4701C47.49 79.2401 47.7699 79.0001 48.0599 78.7701C48.3399 78.5401 48.63 78.3101 48.92 78.0701C49.21 77.8401 49.4999 77.6101 49.7899 77.3801C50.0799 77.1501 50.37 76.9201 50.67 76.7001C50.96 76.4701 51.2599 76.2501 51.5499 76.0301C51.8499 75.8101 52.1399 75.5901 52.4399 75.3701C52.7399 75.1501 53.0399 74.9301 53.3299 74.7101C53.6299 74.4901 53.9299 74.2701 54.2299 74.0601C54.5299 73.8401 54.83 73.6301 55.14 73.4101C55.44 73.2001 55.7499 72.9901 56.0499 72.7801C56.3499 72.5701 56.6599 72.3601 56.9599 72.1501C57.2699 71.9401 57.5699 71.7401 57.8799 71.5301C58.1899 71.3301 58.4999 71.1201 58.8099 70.9201C59.1199 70.7101 59.4299 70.5101 59.7399 70.3101C60.0499 70.1101 60.3599 69.9101 60.6799 69.7201C60.9899 69.5201 61.2999 69.3201 61.6199 69.1301C61.9399 68.9401 62.2499 68.7401 62.5699 68.5501C62.8899 68.3601 63.1999 68.1701 63.5199 67.9801C63.8399 67.7901 64.1599 67.6001 64.4799 67.4201C64.7999 67.2301 65.1199 67.0401 65.4399 66.8601C65.7599 66.6801 66.0799 66.4901 66.3999 66.3101C66.7199 66.1301 67.0499 65.9501 67.3699 65.7701C67.6899 65.5901 68.0199 65.4101 68.3399 65.2401C68.6699 65.0601 68.9899 64.8901 69.3199 64.7201C69.6399 64.5501 69.9699 64.3801 70.2999 64.2001C70.6299 64.0301 70.9599 63.8601 71.2899 63.7001C71.6199 63.5301 71.9499 63.3701 72.2799 63.2001C72.6099 63.0401 72.9399 62.8801 73.2799 62.7101C73.6099 62.5501 73.9499 62.3901 74.2799 62.2301C74.6199 62.0701 74.9499 61.9101 75.2799 61.7601C75.6199 61.6101 75.9499 61.4501 76.2899 61.3001C76.6299 61.1501 76.9599 60.9901 77.2999 60.8401C77.6399 60.6901 77.9799 60.5401 78.3099 60.3901C78.6499 60.2401 78.9899 60.1001 79.3299 59.9501C79.6699 59.8101 80.0099 59.6701 80.3499 59.5201C80.6899 59.3801 81.0399 59.2401 81.3799 59.1001C81.7199 58.9601 82.0699 58.8201 82.4099 58.6901C82.7499 58.5601 83.1 58.4201 83.45 58.2901C83.79 58.1601 84.1399 58.0301 84.4899 57.9001C84.8299 57.7701 85.1799 57.6401 85.5299 57.5101C85.8799 57.3901 86.2199 57.2601 86.5699 57.1301C86.9199 57.0001 87.2699 56.8801 87.6199 56.7601C87.9699 56.6401 88.32 56.5201 88.67 56.4001C89.02 56.2801 89.3699 56.1601 89.7199 56.0501C90.0699 55.9301 90.4199 55.8201 90.7799 55.7101C91.1299 55.6001 91.4899 55.4901 91.8399 55.3801C92.1899 55.2701 92.5499 55.1701 92.8999 55.0601C93.2499 54.9601 93.6099 54.8501 93.9699 54.7501C94.3299 54.6401 94.6799 54.5501 95.0399 54.4401C95.3899 54.3401 95.7499 54.2401 96.1099 54.1401C96.4699 54.0501 96.8299 53.9501 97.1799 53.8501C97.5399 53.7601 97.8999 53.6701 98.2599 53.5701C98.6099 53.4801 98.9699 53.3901 99.3299 53.3001C99.6899 53.2101 100.05 53.1301 100.41 53.0401C100.77 52.9501 101.13 52.8701 101.49 52.7901C101.85 52.7101 102.21 52.6301 102.58 52.5501C102.94 52.4701 103.3 52.4001 103.67 52.3201C104.03 52.2401 104.39 52.1701 104.75 52.1001C105.11 52.0301 105.48 51.9601 105.84 51.8901C106.2 51.8201 106.57 51.7601 106.93 51.6901C107.29 51.6201 107.66 51.5601 108.02 51.4901C108.38 51.4301 108.75 51.3701 109.11 51.3101C109.47 51.2501 109.84 51.1901 110.2 51.1301C110.57 51.0701 110.93 51.0201 111.3 50.9701C111.67 50.9201 112.04 50.8701 112.4 50.8101C112.76 50.7601 113.13 50.7101 113.5 50.6601C113.87 50.6101 114.23 50.5701 114.6 50.5201C114.97 50.4701 115.33 50.4301 115.7 50.3901C116.07 50.3501 116.43 50.3101 116.8 50.2701C117.17 50.2301 117.53 50.2001 117.9 50.1601C118.27 50.1201 118.64 50.0901 119 50.0601C119.37 50.0301 119.74 50.0001 120.11 49.9801C120.48 49.9501 120.85 49.9201 121.21 49.9001C121.58 49.8701 121.95 49.8501 122.32 49.8301C122.69 49.8101 123.06 49.7901 123.43 49.7701C123.8 49.7501 124.17 49.7301 124.54 49.7201C124.91 49.7001 125.28 49.6901 125.65 49.6801C126.02 49.6701 126.39 49.6601 126.76 49.6501C127.13 49.6401 127.5 49.6301 127.87 49.6201C128.24 49.6201 128.61 49.6101 128.98 49.6101C129.35 49.6101 129.72 49.6101 130.09 49.6101H130.18C130.55 49.6101 130.92 49.6101 131.29 49.6201C131.66 49.6201 132.03 49.6301 132.4 49.6401C132.77 49.6401 133.14 49.6601 133.51 49.6601C133.88 49.6701 134.25 49.6801 134.62 49.7001C134.99 49.7101 135.36 49.7301 135.73 49.7401C136.1 49.7601 136.47 49.7701 136.84 49.7901C137.21 49.8101 137.58 49.8301 137.95 49.8501C138.32 49.8701 138.69 49.9001 139.06 49.9201C139.43 49.9501 139.8 49.9701 140.17 50.0101C140.54 50.0401 140.91 50.0701 141.27 50.1001C141.64 50.1301 142.01 50.1701 142.38 50.2001C142.75 50.2301 143.11 50.2701 143.48 50.3101C143.85 50.3501 144.22 50.3901 144.59 50.4301C144.96 50.4701 145.32 50.5101 145.69 50.5601C146.06 50.6001 146.42 50.6501 146.79 50.6901C147.16 50.7401 147.52 50.7901 147.89 50.8401C148.25 50.8901 148.62 50.9401 148.99 50.9901C149.36 51.0401 149.72 51.1001 150.09 51.1601C150.46 51.2101 150.82 51.2701 151.19 51.3301C151.55 51.3901 151.92 51.4501 152.28 51.5101C152.65 51.5701 153.01 51.6301 153.37 51.7001C153.73 51.7701 154.1 51.8401 154.46 51.9001C154.82 51.9701 155.19 52.0401 155.55 52.1101C155.91 52.1801 156.28 52.2601 156.64 52.3301C157 52.4001 157.36 52.4801 157.72 52.5601C158.08 52.6401 158.44 52.7201 158.81 52.8001C159.17 52.8801 159.53 52.9601 159.89 53.0501C160.25 53.1401 160.61 53.2201 160.97 53.3101C161.33 53.4001 161.69 53.4801 162.04 53.5801C162.4 53.6701 162.76 53.7601 163.12 53.8601C163.47 53.9501 163.83 54.0501 164.19 54.1501C164.55 54.2501 164.91 54.3401 165.26 54.4401C165.61 54.5401 165.97 54.6401 166.33 54.7501C166.68 54.8501 167.04 54.9601 167.39 55.0601C167.75 55.1601 168.1 55.2801 168.45 55.3801C168.8 55.4901 169.16 55.6001 169.51 55.7101C169.86 55.8201 170.21 55.9301 170.56 56.0501C170.92 56.1601 171.27 56.2801 171.62 56.4001C171.97 56.5201 172.32 56.6401 172.67 56.7601C173.02 56.8801 173.37 57.0101 173.72 57.1301C174.07 57.2501 174.41 57.3801 174.76 57.5101C175.11 57.6301 175.45 57.7601 175.8 57.8901C176.15 58.0201 176.5 58.1501 176.84 58.2801C177.18 58.4101 177.53 58.5501 177.88 58.6801C178.22 58.8201 178.57 58.9501 178.91 59.0901C179.25 59.2301 179.6 59.3701 179.94 59.5101C180.28 59.6501 180.62 59.8001 180.96 59.9401C181.3 60.0901 181.64 60.2301 181.98 60.3801C182.32 60.5201 182.66 60.6801 183 60.8201C183.34 60.9701 183.68 61.1201 184.01 61.2801C184.35 61.4301 184.68 61.5901 185.02 61.7501C185.36 61.9101 185.69 62.0601 186.02 62.2201C186.35 62.3801 186.69 62.5401 187.02 62.7001C187.35 62.8601 187.68 63.0201 188.02 63.1901C188.35 63.3501 188.68 63.5201 189.01 63.6901C189.34 63.8601 189.67 64.0301 189.99 64.1901C190.32 64.3601 190.65 64.5301 190.98 64.7101C191.31 64.8901 191.63 65.0601 191.96 65.2301C192.29 65.4101 192.61 65.5901 192.94 65.7601C193.26 65.9401 193.59 66.1201 193.91 66.3001C194.23 66.4801 194.56 66.6601 194.88 66.8501C195.2 67.0301 195.52 67.2201 195.84 67.4001C196.16 67.5901 196.48 67.7801 196.79 67.9701C197.11 68.1601 197.43 68.3501 197.74 68.5401C198.06 68.7301 198.37 68.9301 198.68 69.1201C199 69.3101 199.31 69.5101 199.62 69.7101C199.93 69.9101 200.24 70.1001 200.55 70.3001C200.86 70.5001 201.17 70.7001 201.48 70.9101C201.79 71.1101 202.1 71.3201 202.4 71.5201C202.71 71.7301 203.01 71.9301 203.32 72.1401C203.63 72.3501 203.93 72.5601 204.23 72.7701C204.53 72.9801 204.84 73.1901 205.14 73.4101C205.44 73.6201 205.74 73.8401 206.05 74.0501C206.35 74.2601 206.65 74.4801 206.95 74.7001C207.25 74.9201 207.54 75.1401 207.84 75.3601C208.14 75.5801 208.43 75.8001 208.73 76.0301C209.02 76.2501 209.32 76.4801 209.61 76.7101C209.9 76.9401 210.19 77.1601 210.49 77.3901C210.78 77.6201 211.07 77.8501 211.36 78.0801C211.65 78.3101 211.94 78.5401 212.22 78.7701C212.51 79.0101 212.79 79.2401 213.08 79.4701C213.37 79.7101 213.65 79.9501 213.93 80.1801C214.21 80.4201 214.5 80.6601 214.77 80.9001C215.06 81.1401 215.33 81.3801 215.61 81.6301C215.89 81.8701 216.17 82.1101 216.44 82.3601C216.72 82.6101 216.99 82.8601 217.27 83.1001C217.54 83.3501 217.82 83.6001 218.09 83.8501C218.36 84.1001 218.63 84.3501 218.9 84.6001C219.17 84.8601 219.44 85.1101 219.71 85.3601C219.98 85.6101 220.24 85.8701 220.51 86.1301C220.78 86.3901 221.04 86.6501 221.3 86.9001C221.56 87.1601 221.83 87.4201 222.09 87.6801C222.35 87.9401 222.61 88.2001 222.87 88.4701C223.13 88.7401 223.39 89.0001 223.64 89.2701C223.9 89.5301 224.15 89.8001 224.41 90.0701C224.67 90.3401 224.92 90.6101 225.17 90.8801C225.42 91.1501 225.67 91.4201 225.92 91.6901C226.17 91.9601 226.42 92.2401 226.67 92.5101C226.92 92.7901 227.16 93.0601 227.4 93.3401C227.65 93.6201 227.89 93.8901 228.14 94.1701C228.38 94.4501 228.62 94.7301 228.86 95.0101C229.1 95.2901 229.34 95.5701 229.58 95.8601C229.82 96.1401 230.05 96.4301 230.29 96.7101C230.52 97.0001 230.76 97.2801 230.99 97.5701C231.22 97.8501 231.45 98.1401 231.68 98.4301C231.91 98.7101 232.14 99.0101 232.37 99.3001C232.6 99.5901 232.82 99.8901 233.05 100.18C233.28 100.47 233.5 100.77 233.72 101.06C233.95 101.36 234.17 101.65 234.39 101.95C234.61 102.25 234.83 102.54 235.05 102.84C235.27 103.14 235.48 103.44 235.7 103.74C235.91 104.04 236.13 104.34 236.34 104.64C236.56 104.94 236.77 105.25 236.98 105.55C237.19 105.85 237.4 106.16 237.61 106.46C237.82 106.77 238.02 107.07 238.23 107.38C238.44 107.69 238.64 107.99 238.85 108.3C239.05 108.61 239.25 108.92 239.45 109.23C239.65 109.54 239.85 109.85 240.05 110.16C240.25 110.47 240.45 110.79 240.64 111.1C240.84 111.42 241.03 111.73 241.22 112.05C241.41 112.37 241.6 112.68 241.79 113C241.98 113.32 242.17 113.64 242.36 113.95C242.55 114.27 242.73 114.59 242.92 114.91C243.1 115.23 243.29 115.55 243.47 115.88C243.65 116.2 243.83 116.52 244.01 116.85C244.19 117.18 244.36 117.5 244.54 117.83C244.72 118.15 244.89 118.48 245.06 118.81C245.23 119.13 245.4 119.46 245.58 119.79C245.76 120.12 245.92 120.45 246.09 120.78C246.26 121.11 246.42 121.44 246.59 121.77C246.75 122.1 246.92 122.43 247.08 122.77C247.24 123.1 247.4 123.43 247.56 123.77C247.72 124.11 247.87 124.44 248.03 124.77C248.19 125.11 248.34 125.44 248.49 125.78C248.65 126.12 248.8 126.46 248.95 126.79C249.1 127.13 249.25 127.47 249.4 127.81C249.54 128.15 249.69 128.49 249.83 128.83C249.98 129.17 250.12 129.51 250.26 129.85C250.4 130.19 250.54 130.53 250.68 130.88C250.82 131.22 250.95 131.57 251.09 131.91C251.23 132.25 251.36 132.6 251.49 132.95C251.62 133.29 251.76 133.64 251.89 133.98C252.02 134.33 252.15 134.68 252.28 135.02C252.4 135.37 252.53 135.72 252.66 136.07C252.78 136.42 252.91 136.77 253.03 137.12C253.15 137.47 253.27 137.82 253.39 138.17C253.51 138.52 253.62 138.87 253.74 139.22C253.85 139.57 253.97 139.93 254.08 140.28C254.19 140.63 254.3 140.99 254.41 141.34C254.52 141.7 254.62 142.05 254.73 142.4C254.83 142.75 254.94 143.11 255.04 143.46C255.14 143.82 255.24 144.17 255.35 144.53C255.45 144.88 255.54 145.24 255.64 145.6C255.74 145.96 255.83 146.31 255.93 146.67C256.02 147.03 256.12 147.38 256.21 147.74C256.3 148.1 256.39 148.46 256.48 148.82C256.57 149.18 256.66 149.54 256.74 149.9C256.82 150.26 256.9 150.62 256.99 150.98C257.07 151.34 257.15 151.7 257.23 152.06C257.31 152.42 257.38 152.78 257.46 153.15C257.53 153.51 257.61 153.88 257.68 154.24C257.75 154.6 257.82 154.96 257.89 155.33C257.96 155.69 258.03 156.06 258.09 156.42C258.16 156.79 258.22 157.15 258.28 157.51C258.35 157.88 258.4 158.24 258.47 158.61C258.53 158.97 258.59 159.34 258.64 159.7C258.7 160.07 258.75 160.43 258.8 160.8C258.86 161.17 258.91 161.53 258.96 161.9C259.01 162.27 259.06 162.63 259.11 163C259.16 163.37 259.2 163.73 259.25 164.1C259.3 164.47 259.34 164.83 259.38 165.2C259.42 165.57 259.46 165.93 259.5 166.3C259.54 166.67 259.57 167.03 259.61 167.4C259.65 167.77 259.68 168.14 259.71 168.51C259.74 168.88 259.77 169.25 259.8 169.61C259.83 169.98 259.85 170.35 259.88 170.72C259.9 171.09 259.93 171.46 259.95 171.83C259.97 172.2 259.99 172.57 260.01 172.94C260.03 173.31 260.05 173.68 260.06 174.05C260.08 174.42 260.09 174.79 260.1 175.16C260.11 175.53 260.12 175.9 260.13 176.27C260.14 176.64 260.15 177.01 260.15 177.38C260.16 177.75 260.16 178.12 260.17 178.49C260.15 178.93 260.15 179.3 260.15 179.66Z" fill="url(#paint0_linear_27_7)"/>
<path d="M350.64 200.69H335.4C331.39 200.69 328.26 197.31 326.82 193.6C324.04 186.4 317.15 181.21 309.01 181.21C300.87 181.21 293.77 186.4 290.89 193.61C289.41 197.31 286.27 200.7 282.27 200.7H267.38C265.46 200.7 263.61 199.93 262.25 198.58C260.89 197.22 260.12 195.37 260.12 193.45V179.68H260.14C260.14 179.31 260.14 178.94 260.13 178.57C260.13 178.2 260.12 177.83 260.11 177.46C260.11 177.09 260.1 176.72 260.09 176.35C260.08 175.98 260.07 175.61 260.06 175.24C260.05 174.87 260.03 174.5 260.02 174.13C260 173.76 259.99 173.39 259.97 173.02C259.95 172.65 259.93 172.28 259.91 171.91C259.89 171.54 259.87 171.17 259.84 170.81C259.82 170.44 259.79 170.07 259.76 169.7C259.73 169.33 259.71 168.96 259.67 168.59C259.64 168.22 259.6 167.85 259.57 167.48C259.53 167.11 259.5 166.74 259.46 166.38C259.42 166.01 259.38 165.64 259.34 165.28C259.3 164.91 259.25 164.55 259.21 164.18C259.17 163.81 259.12 163.45 259.07 163.08C259.02 162.71 258.98 162.35 258.93 161.98C258.88 161.61 258.82 161.24 258.77 160.88C258.72 160.52 258.66 160.15 258.6 159.79C258.55 159.42 258.49 159.06 258.43 158.69C258.37 158.33 258.31 157.96 258.25 157.6C258.19 157.24 258.13 156.87 258.06 156.51C257.99 156.15 257.92 155.78 257.86 155.42C257.79 155.06 257.72 154.69 257.64 154.33C257.57 153.97 257.5 153.61 257.42 153.24C257.34 152.88 257.27 152.51 257.19 152.15C257.11 151.79 257.03 151.43 256.95 151.07C256.87 150.71 256.79 150.35 256.7 149.99C256.61 149.63 256.53 149.27 256.44 148.91C256.35 148.55 256.26 148.19 256.17 147.83C256.08 147.47 255.99 147.11 255.89 146.75C255.8 146.39 255.7 146.04 255.6 145.68C255.51 145.33 255.41 144.96 255.31 144.61C255.21 144.25 255.11 143.9 255 143.54C254.9 143.19 254.79 142.83 254.69 142.48C254.58 142.12 254.48 141.77 254.37 141.42C254.26 141.07 254.15 140.71 254.04 140.36C253.93 140 253.81 139.65 253.7 139.3C253.59 138.95 253.47 138.6 253.35 138.25C253.23 137.9 253.11 137.55 252.99 137.2C252.87 136.85 252.75 136.5 252.62 136.15C252.5 135.8 252.37 135.45 252.24 135.11C252.12 134.76 251.99 134.41 251.86 134.07C251.73 133.72 251.6 133.38 251.46 133.03C251.33 132.68 251.19 132.34 251.05 131.99C250.92 131.65 250.78 131.3 250.64 130.96C250.5 130.62 250.36 130.27 250.22 129.93C250.07 129.59 249.93 129.25 249.79 128.91C249.65 128.57 249.5 128.23 249.35 127.89C249.2 127.55 249.05 127.21 248.9 126.87C248.75 126.53 248.6 126.2 248.45 125.86C248.3 125.52 248.14 125.19 247.98 124.85C247.83 124.51 247.67 124.18 247.51 123.85C247.35 123.51 247.19 123.18 247.03 122.85C246.87 122.52 246.71 122.19 246.54 121.85C246.38 121.52 246.21 121.19 246.04 120.86C245.87 120.53 245.7 120.2 245.53 119.87C245.36 119.54 245.19 119.21 245.01 118.89C244.84 118.57 244.67 118.24 244.49 117.91C244.31 117.59 244.14 117.26 243.96 116.93C243.78 116.61 243.6 116.28 243.42 115.96C243.24 115.64 243.06 115.32 242.87 115C242.69 114.68 242.5 114.36 242.31 114.04C242.12 113.72 241.93 113.4 241.75 113.09C241.56 112.77 241.37 112.45 241.18 112.14C240.98 111.82 240.79 111.51 240.6 111.19C240.41 110.88 240.21 110.56 240.01 110.25C239.81 109.94 239.61 109.63 239.42 109.32C239.22 109.01 239.02 108.7 238.81 108.39C238.61 108.08 238.4 107.77 238.2 107.47C237.99 107.16 237.79 106.86 237.58 106.55C237.37 106.25 237.16 105.94 236.95 105.64C236.74 105.34 236.53 105.03 236.32 104.73C236.11 104.43 235.89 104.13 235.68 103.83C235.47 103.53 235.25 103.23 235.03 102.93C234.81 102.63 234.59 102.33 234.37 102.04C234.15 101.74 233.93 101.45 233.71 101.15C233.49 100.86 233.26 100.56 233.04 100.27C232.81 99.9801 232.58 99.6801 232.36 99.3901C232.13 99.1001 231.9 98.8101 231.67 98.5201C231.44 98.2301 231.21 97.9501 230.97 97.6601C230.74 97.3701 230.5 97.0901 230.27 96.8001C230.04 96.5101 229.8 96.2301 229.56 95.9501C229.32 95.6701 229.08 95.3901 228.84 95.1101C228.6 94.8301 228.36 94.5501 228.12 94.2701C227.87 93.9901 227.63 93.7101 227.39 93.4401C227.14 93.1601 226.9 92.8901 226.65 92.6101C226.4 92.3301 226.15 92.0601 225.9 91.7901C225.65 91.5201 225.4 91.2501 225.15 90.9801C224.9 90.7101 224.65 90.4401 224.39 90.1701C224.14 89.9001 223.88 89.6301 223.62 89.3701C223.36 89.1001 223.1 88.8401 222.85 88.5801C222.59 88.3201 222.33 88.0501 222.07 87.7901C221.81 87.5301 221.55 87.2701 221.29 87.0101C221.02 86.7501 220.76 86.4901 220.49 86.2401C220.22 85.9801 219.95 85.7301 219.69 85.4701C219.42 85.2201 219.15 84.9601 218.88 84.7101C218.62 84.4601 218.34 84.2101 218.07 83.9601C217.8 83.7101 217.52 83.4601 217.25 83.2101C216.98 82.9601 216.7 82.7101 216.43 82.4701C216.15 82.2201 215.88 81.9801 215.6 81.7401C215.32 81.4901 215.04 81.2501 214.76 81.0101C214.48 80.7701 214.2 80.5301 213.91 80.3001C213.63 80.0601 213.34 79.8201 213.06 79.5801C212.78 79.3501 212.49 79.1101 212.2 78.8801C211.92 78.6501 211.63 78.4201 211.34 78.1901C211.05 77.9601 210.76 77.7301 210.47 77.5001C210.18 77.2701 209.89 77.0501 209.59 76.8201C209.3 76.5901 209.01 76.3701 208.71 76.1401C208.42 75.9201 208.12 75.7001 207.82 75.4701C207.52 75.2501 207.23 75.0301 206.93 74.8101C206.63 74.6001 206.33 74.3801 206.03 74.1601C205.73 73.9401 205.43 73.7301 205.13 73.5201C204.83 73.3001 204.52 73.0901 204.22 72.8801C203.92 72.6701 203.61 72.4601 203.31 72.2501C203.01 72.0401 202.7 71.8401 202.39 71.6301C202.09 71.4201 201.78 71.2201 201.47 71.0201C201.16 70.8201 200.85 70.6101 200.54 70.4101C200.23 70.2101 199.92 70.0101 199.61 69.8101C199.3 69.6101 198.98 69.4201 198.67 69.2201C198.35 69.0301 198.04 68.8301 197.73 68.6301C197.41 68.4401 197.1 68.2501 196.78 68.0601C196.46 67.8701 196.15 67.6801 195.83 67.4901C195.51 67.3101 195.19 67.1201 194.87 66.9401C194.55 66.7601 194.23 66.5701 193.91 66.3901C193.59 66.2101 193.26 66.0301 192.94 65.8501C192.62 65.6701 192.29 65.4901 191.97 65.3201C191.64 65.1401 191.32 64.9701 190.99 64.8001C190.66 64.6301 190.34 64.4601 190.01 64.2801C189.69 64.1101 189.35 63.9401 189.03 63.7801C188.7 63.6101 188.37 63.4501 188.04 63.2801C187.71 63.1201 187.38 62.9501 187.04 62.7901C186.71 62.6301 186.38 62.4701 186.04 62.3101C185.71 62.1501 185.37 62.0001 185.04 61.8401C184.71 61.6801 184.37 61.5301 184.04 61.3701C183.7 61.2101 183.36 61.0601 183.02 60.9101C182.68 60.7601 182.34 60.6101 182.01 60.4601C181.67 60.3101 181.33 60.1701 180.99 60.0301C180.65 59.8901 180.31 59.7401 179.97 59.6001C179.63 59.4601 179.29 59.3201 178.94 59.1801C178.6 59.0401 178.25 58.9101 177.91 58.7701C177.57 58.6401 177.22 58.5001 176.87 58.3701C176.53 58.2401 176.18 58.1001 175.83 57.9801C175.49 57.8501 175.14 57.7201 174.79 57.6001C174.44 57.4701 174.09 57.3501 173.75 57.2201C173.4 57.1001 173.05 56.9701 172.7 56.8501C172.35 56.7301 172 56.6101 171.65 56.4901C171.3 56.3701 170.95 56.2501 170.59 56.1401C170.24 56.0301 169.88 55.9101 169.53 55.8001C169.18 55.6901 168.83 55.5801 168.47 55.4701C168.12 55.3701 167.76 55.2601 167.41 55.1501C167.06 55.0401 166.7 54.9401 166.35 54.8401C166 54.7401 165.64 54.6301 165.28 54.5301C164.92 54.4301 164.57 54.3301 164.21 54.2401C163.86 54.1401 163.5 54.0501 163.14 53.9501C162.78 53.8601 162.43 53.7601 162.07 53.6701C161.71 53.5801 161.35 53.4901 160.99 53.4001C160.63 53.3101 160.27 53.2301 159.91 53.1401C159.55 53.0501 159.19 52.9701 158.83 52.8901C158.47 52.8101 158.11 52.7301 157.75 52.6501C157.39 52.5701 157.02 52.5001 156.67 52.4201C156.31 52.3501 155.94 52.2701 155.58 52.2001C155.22 52.1301 154.86 52.0601 154.49 51.9901C154.13 51.9201 153.76 51.8501 153.4 51.7901C153.04 51.7201 152.67 51.6601 152.31 51.5901C151.94 51.5301 151.58 51.4701 151.22 51.4101C150.85 51.3501 150.49 51.2901 150.12 51.2301C149.76 51.1701 149.39 51.1201 149.02 51.0601C148.65 51.0001 148.29 50.9501 147.92 50.9001C147.55 50.8501 147.19 50.8001 146.82 50.7501C146.45 50.7001 146.09 50.6601 145.72 50.6101C145.35 50.5701 144.98 50.5201 144.62 50.4901C144.25 50.4501 143.89 50.4101 143.52 50.3701C143.15 50.3301 142.78 50.3001 142.42 50.2601C142.05 50.2201 141.69 50.1901 141.32 50.1601C140.95 50.1301 140.58 50.1001 140.21 50.0701C139.84 50.0401 139.48 50.0101 139.1 49.9801C138.73 49.9601 138.36 49.9301 137.99 49.9101C137.62 49.8901 137.25 49.8701 136.88 49.8501C136.51 49.8301 136.14 49.8101 135.77 49.8001C135.4 49.7901 135.03 49.7701 134.66 49.7601C134.29 49.7401 133.92 49.7401 133.55 49.7201C133.18 49.7101 132.81 49.7001 132.44 49.6901C132.07 49.6901 131.7 49.6801 131.34 49.6801C130.97 49.6801 130.6 49.6701 130.23 49.6701H130.15C129.78 49.6701 129.41 49.6701 129.04 49.6701C128.67 49.6701 128.3 49.6801 127.93 49.6901C127.56 49.7001 127.19 49.7101 126.82 49.7101C126.45 49.7201 126.08 49.7301 125.71 49.7401C125.34 49.7601 124.97 49.7701 124.6 49.7901C124.23 49.8101 123.86 49.8201 123.5 49.8401C123.13 49.8601 122.76 49.8801 122.39 49.9001C122.02 49.9201 121.65 49.9401 121.28 49.9701C120.91 49.9901 120.55 50.0201 120.18 50.0501C119.81 50.0801 119.44 50.1101 119.07 50.1401C118.7 50.1701 118.34 50.2101 117.97 50.2401C117.6 50.2801 117.24 50.3101 116.87 50.3501C116.5 50.3901 116.14 50.4201 115.77 50.4701C115.4 50.5101 115.04 50.5501 114.67 50.6001C114.3 50.6401 113.94 50.6901 113.57 50.7301C113.2 50.7801 112.84 50.8301 112.47 50.8801C112.1 50.9301 111.74 50.9801 111.37 51.0401C111 51.1001 110.64 51.1501 110.27 51.2001C109.91 51.2601 109.54 51.3201 109.18 51.3801C108.81 51.4401 108.45 51.5001 108.09 51.5601C107.73 51.6201 107.36 51.6901 107 51.7601C106.64 51.8201 106.27 51.8901 105.91 51.9601C105.55 52.0301 105.18 52.1001 104.82 52.1701C104.46 52.2401 104.09 52.3201 103.73 52.3901C103.37 52.4701 103.01 52.5401 102.64 52.6201C102.28 52.7001 101.92 52.7801 101.55 52.8601C101.19 52.9401 100.83 53.0201 100.47 53.1101C100.11 53.1901 99.75 53.2801 99.39 53.3701C99.03 53.4601 98.6799 53.5501 98.3199 53.6401C97.9599 53.7301 97.5999 53.8201 97.2499 53.9201C96.8899 54.0101 96.5399 54.1101 96.1799 54.2001C95.8299 54.3001 95.4699 54.4001 95.1099 54.5001C94.7499 54.6001 94.3999 54.7001 94.0399 54.8101C93.6899 54.9101 93.3299 55.0101 92.9799 55.1201C92.6299 55.2301 92.27 55.3301 91.92 55.4401C91.57 55.5501 91.2099 55.6601 90.8599 55.7701C90.4999 55.8801 90.1499 55.9901 89.7999 56.1101C89.4499 56.2201 89.0999 56.3401 88.7499 56.4601C88.3999 56.5801 88.05 56.7001 87.7 56.8201C87.35 56.9401 86.9999 57.0701 86.6499 57.1901C86.2999 57.3101 85.9499 57.4401 85.6099 57.5701C85.2599 57.6901 84.9199 57.8201 84.5699 57.9601C84.2199 58.0901 83.8699 58.2201 83.5299 58.3501C83.1899 58.4801 82.8399 58.6201 82.4999 58.7501C82.1499 58.8901 81.8099 59.0201 81.4699 59.1601C81.1299 59.3001 80.7799 59.4401 80.4399 59.5801C80.0999 59.7201 79.76 59.8701 79.42 60.0101C79.08 60.1601 78.7399 60.3001 78.3999 60.4501C78.0599 60.6001 77.7199 60.7501 77.3799 60.8901C77.0399 61.0401 76.6999 61.2001 76.3699 61.3501C76.0299 61.5001 75.6899 61.6501 75.3599 61.8101C75.0199 61.9701 74.6899 62.1201 74.3599 62.2801C74.0299 62.4401 73.6999 62.6001 73.3599 62.7601C73.0299 62.9201 72.6999 63.0801 72.3599 63.2501C72.0299 63.4101 71.6999 63.5801 71.3699 63.7501C71.0399 63.9201 70.7099 64.0901 70.3799 64.2501C70.0499 64.4201 69.7199 64.5901 69.3999 64.7701C69.0699 64.9401 68.75 65.1201 68.42 65.2901C68.09 65.4701 67.77 65.6401 67.45 65.8201C67.13 66.0001 66.7999 66.1801 66.4799 66.3601C66.1599 66.5401 65.8399 66.7201 65.5099 66.9101C65.1899 67.0901 64.8699 67.2801 64.5499 67.4701C64.2299 67.6501 63.9099 67.8501 63.5899 68.0301C63.2699 68.2201 62.96 68.4101 62.64 68.6001C62.32 68.7901 62.01 68.9801 61.7 69.1801C61.38 69.3801 61.0699 69.5701 60.7599 69.7701C60.4499 69.9701 60.1399 70.1701 59.8299 70.3701C59.5199 70.5701 59.2099 70.7701 58.8999 70.9701C58.5899 71.1701 58.2799 71.3801 57.9699 71.5801C57.6599 71.7901 57.3599 71.9901 57.0499 72.2001C56.7399 72.4101 56.44 72.6201 56.14 72.8301C55.84 73.0401 55.5299 73.2501 55.2299 73.4601C54.9299 73.6701 54.6299 73.8901 54.3199 74.1101C54.0099 74.3301 53.72 74.5401 53.42 74.7601C53.12 74.9801 52.8199 75.2001 52.5299 75.4201C52.2299 75.6401 51.94 75.8701 51.64 76.0901C51.34 76.3101 51.0499 76.5401 50.7599 76.7601C50.4699 76.9901 50.1699 77.2101 49.8799 77.4401C49.5899 77.6701 49.2999 77.9001 49.0099 78.1301C48.7299 78.3601 48.4399 78.6001 48.1499 78.8301C47.8599 79.0601 47.5799 79.3001 47.2899 79.5301C46.9999 79.7601 46.7199 80.0001 46.4399 80.2401C46.1499 80.4801 45.8699 80.7201 45.5899 80.9501C45.2999 81.1901 45.0299 81.4401 44.7499 81.6801C44.4699 81.9201 44.19 82.1601 43.92 82.4101C43.64 82.6501 43.3699 82.9001 43.0899 83.1501C42.8099 83.4001 42.5399 83.6501 42.2699 83.9001C41.9999 84.1501 41.72 84.4001 41.45 84.6501C41.18 84.9001 40.91 85.1501 40.64 85.4101C40.37 85.6601 40.0999 85.9201 39.8299 86.1801C39.5699 86.4401 39.2999 86.7001 39.0399 86.9501C38.7699 87.2101 38.5099 87.4701 38.2499 87.7401C37.9899 88.0001 37.7299 88.2601 37.4699 88.5201C37.2099 88.7901 36.95 89.0501 36.7 89.3201C36.44 89.5901 36.1899 89.8501 35.9299 90.1201C35.6799 90.3901 35.42 90.6601 35.17 90.9301C34.92 91.2001 34.67 91.4701 34.42 91.7401C34.17 92.0101 33.92 92.2901 33.67 92.5601C33.42 92.8301 33.1699 93.1101 32.9299 93.3801C32.6799 93.6601 32.44 93.9401 32.2 94.2101C31.95 94.4901 31.7099 94.7701 31.4699 95.0501C31.2299 95.3301 30.9899 95.6101 30.7499 95.8901C30.5099 96.1701 30.2799 96.4601 30.0399 96.7401C29.7999 97.0301 29.5699 97.3101 29.3399 97.6001C29.1099 97.8801 28.88 98.1701 28.64 98.4601C28.41 98.7501 28.18 99.0401 27.95 99.3301C27.72 99.6201 27.4899 99.9201 27.2699 100.21C27.0399 100.5 26.8199 100.8 26.5999 101.09C26.3799 101.39 26.1599 101.68 25.9299 101.98C25.7099 102.28 25.4899 102.57 25.2699 102.87C25.0499 103.17 24.8399 103.46 24.6199 103.77C24.3999 104.07 24.1899 104.37 23.9699 104.68C23.7599 104.98 23.5399 105.28 23.3299 105.59C23.1199 105.9 22.9099 106.2 22.7099 106.51C22.4999 106.81 22.2899 107.12 22.0899 107.43C21.8899 107.74 21.6799 108.05 21.4799 108.36C21.2799 108.67 21.0699 108.98 20.8799 109.29C20.6799 109.6 20.4799 109.91 20.2799 110.23C20.0799 110.54 19.8899 110.85 19.6899 111.17C19.4999 111.49 19.2999 111.8 19.1099 112.12C18.9199 112.44 18.7299 112.75 18.5399 113.07C18.3499 113.39 18.1599 113.71 17.9699 114.03C17.7799 114.35 17.6 114.67 17.42 114.99C17.24 115.31 17.0499 115.63 16.8699 115.96C16.6899 116.28 16.5099 116.6 16.3299 116.93C16.1499 117.25 15.9699 117.58 15.7999 117.9C15.6199 118.23 15.4499 118.55 15.2799 118.88C15.1099 119.21 14.9399 119.54 14.7599 119.86C14.5899 120.19 14.4199 120.52 14.2599 120.85C14.0899 121.18 13.9199 121.51 13.7599 121.84C13.5999 122.17 13.4299 122.5 13.2699 122.84C13.1099 123.17 12.9499 123.5 12.7899 123.84C12.6299 124.18 12.4699 124.51 12.3199 124.84C12.1599 125.18 12.0099 125.51 11.8599 125.85C11.6999 126.19 11.5599 126.52 11.3999 126.86C11.2499 127.2 11.1 127.54 10.95 127.88C10.8 128.22 10.6499 128.56 10.5099 128.9C10.3599 129.24 10.2199 129.58 10.0799 129.93C9.93993 130.27 9.79994 130.61 9.65994 130.95C9.51994 131.29 9.37994 131.64 9.24994 131.98C9.10994 132.32 8.97995 132.67 8.84995 133.01C8.71995 133.36 8.57995 133.7 8.44995 134.05C8.31995 134.4 8.18994 134.74 8.05994 135.09C7.93994 135.44 7.80993 135.79 7.67993 136.13C7.55993 136.48 7.42994 136.82 7.30994 137.18C7.18994 137.53 7.06995 137.88 6.94995 138.23C6.82995 138.58 6.70995 138.93 6.59995 139.28C6.48995 139.63 6.36995 139.98 6.25995 140.34C6.14995 140.69 6.03993 141.05 5.92993 141.4C5.81993 141.75 5.71992 142.11 5.60992 142.46C5.50992 142.81 5.39993 143.17 5.29993 143.53C5.19993 143.89 5.09993 144.24 4.98993 144.6C4.88993 144.95 4.78995 145.32 4.69995 145.67C4.59995 146.03 4.50994 146.39 4.40994 146.74C4.31994 147.1 4.21994 147.45 4.12994 147.82C4.03994 148.18 3.94992 148.54 3.85992 148.9C3.76992 149.26 3.67995 149.62 3.59995 149.98C3.51995 150.34 3.43995 150.7 3.34995 151.06C3.26995 151.42 3.18992 151.78 3.10992 152.14C3.02992 152.5 2.95994 152.86 2.87994 153.23C2.80994 153.59 2.72994 153.96 2.65994 154.32C2.58994 154.68 2.51995 155.05 2.44995 155.41C2.37995 155.77 2.30994 156.14 2.24994 156.5C2.17994 156.86 2.11993 157.23 2.04993 157.59C1.98993 157.95 1.92993 158.32 1.86993 158.69C1.80993 159.05 1.74994 159.42 1.68994 159.78C1.63994 160.15 1.57994 160.51 1.52994 160.88C1.46994 161.24 1.42993 161.61 1.36993 161.98C1.30993 162.35 1.26994 162.71 1.21994 163.08C1.16994 163.45 1.12993 163.81 1.07993 164.18C1.02993 164.55 0.989951 164.91 0.949951 165.28C0.909951 165.65 0.869926 166.02 0.829926 166.38L0.809937 166.5C7.69994 74.3901 85.2799 0.840088 179.04 0.840088C277.27 0.840088 357.95 81.5201 357.95 179.75V193.52C357.95 195.44 357.18 197.29 355.83 198.65C354.41 199.92 352.56 200.68 350.64 200.69Z" fill="url(#paint1_linear_27_7)"/>
<g opacity="0.115">
<path d="M260.15 179.66C260.15 147.1 241.71 119.59 214.57 106.58C214.47 106.45 214.37 106.32 214.27 106.2C214.06 105.93 213.84 105.66 213.63 105.4C213.41 105.13 213.2 104.87 212.98 104.6C212.76 104.33 212.55 104.07 212.33 103.81C212.12 103.54 211.9 103.28 211.68 103.02C211.46 102.76 211.24 102.5 211.01 102.24C210.79 101.98 210.57 101.72 210.34 101.47C210.11 101.21 209.89 100.96 209.67 100.7C209.44 100.45 209.22 100.19 208.99 99.9401C208.76 99.6901 208.54 99.4301 208.31 99.1801C208.08 98.9301 207.85 98.6801 207.61 98.4301C207.38 98.1801 207.15 97.9301 206.91 97.6901C206.68 97.4401 206.44 97.1901 206.21 96.9501C205.97 96.7001 205.74 96.4601 205.49 96.2201C205.25 95.9801 205.01 95.7401 204.77 95.4901C204.53 95.2501 204.29 95.0101 204.04 94.7701C203.8 94.5301 203.55 94.2901 203.31 94.0501C203.06 93.8101 202.82 93.5801 202.57 93.3401C202.32 93.1001 202.07 92.8701 201.82 92.6401C201.57 92.4001 201.32 92.1701 201.07 91.9501C200.82 91.7201 200.57 91.4901 200.31 91.2601C200.06 91.0301 199.8 90.8101 199.55 90.5801C199.3 90.3501 199.04 90.1301 198.78 89.9001C198.53 89.6701 198.27 89.4501 198.01 89.2301C197.75 89.0101 197.49 88.7901 197.23 88.5701C196.97 88.3501 196.71 88.1301 196.45 87.9101C196.18 87.6901 195.92 87.4801 195.66 87.2601C195.4 87.0501 195.13 86.8301 194.86 86.6201C194.6 86.4101 194.33 86.1901 194.06 85.9801C193.79 85.7701 193.52 85.5601 193.26 85.3501C192.99 85.1401 192.72 84.9401 192.45 84.7301C192.18 84.5201 191.9 84.3201 191.63 84.1101C191.36 83.9101 191.08 83.7101 190.81 83.5101C190.54 83.3101 190.26 83.1101 189.98 82.9101C189.71 82.7101 189.43 82.5101 189.15 82.3201C188.87 82.1201 188.59 81.9201 188.32 81.7301C188.04 81.5401 187.76 81.3401 187.47 81.1501C187.19 80.9601 186.91 80.7701 186.62 80.5801C186.34 80.3901 186.05 80.2001 185.77 80.0101C185.48 79.8201 185.2 79.6401 184.91 79.4501C184.62 79.2601 184.34 79.0801 184.05 78.9001C183.76 78.7201 183.47 78.5401 183.18 78.3601C182.89 78.1801 182.6 78.0001 182.31 77.8201C182.02 77.6401 181.72 77.4701 181.43 77.2901C181.14 77.1201 180.84 76.9401 180.55 76.7701C180.26 76.6001 179.96 76.4301 179.66 76.2601C179.36 76.0901 179.07 75.9201 178.77 75.7601C178.47 75.5901 178.18 75.4201 177.88 75.2601C177.58 75.1001 177.28 74.9301 176.98 74.7701C176.68 74.6001 176.38 74.4501 176.08 74.2801C175.78 74.1201 175.48 73.9601 175.17 73.8101C174.87 73.6501 174.56 73.4901 174.26 73.3401C173.96 73.1801 173.65 73.0301 173.35 72.8801C173.04 72.7301 172.74 72.5701 172.43 72.4301C172.12 72.2801 171.82 72.1301 171.51 71.9901C171.2 71.8401 170.89 71.7001 170.58 71.5501C170.27 71.4001 169.96 71.2601 169.65 71.1201C169.34 70.9801 169.03 70.8401 168.72 70.7001C168.41 70.5601 168.1 70.4201 167.79 70.2901C167.48 70.1601 167.17 70.0201 166.85 69.8901C166.54 69.7601 166.23 69.6201 165.91 69.4901C165.59 69.3601 165.28 69.2301 164.96 69.1001C164.64 68.9801 164.33 68.8501 164.01 68.7201C163.69 68.6001 163.38 68.4701 163.06 68.3501C162.74 68.2301 162.42 68.1101 162.1 67.9901C161.78 67.8701 161.46 67.7501 161.14 67.6401C160.82 67.5201 160.49 67.4001 160.18 67.2901C159.86 67.1801 159.54 67.0601 159.22 66.9501C158.9 66.8401 158.57 66.7301 158.25 66.6201C157.93 66.5101 157.61 66.4001 157.28 66.3001C156.96 66.2001 156.63 66.0901 156.3 65.9901C155.98 65.8901 155.65 65.7801 155.32 65.6801C155 65.5801 154.67 65.4801 154.34 65.3801C154.01 65.2801 153.68 65.1901 153.36 65.0901C153.03 65.0001 152.71 64.9001 152.38 64.8101C152.05 64.7201 151.72 64.6301 151.4 64.5401C151.07 64.4501 150.74 64.3601 150.42 64.2801C150.09 64.1901 149.76 64.1101 149.43 64.0301C149.1 63.9401 148.77 63.8601 148.43 63.7801C148.1 63.7001 147.77 63.6201 147.43 63.5401C147.1 63.4601 146.77 63.3801 146.44 63.3101C146.11 63.2401 145.77 63.1601 145.44 63.0901C145.11 63.0201 144.77 62.9501 144.44 62.8801C144.1 62.8101 143.77 62.7401 143.44 62.6801C143.11 62.6101 142.77 62.5501 142.44 62.4901C142.11 62.4201 141.77 62.3601 141.44 62.3001C141.1 62.2401 140.77 62.1801 140.43 62.1301C140.09 62.0701 139.76 62.0201 139.42 61.9601C139.08 61.9101 138.75 61.8501 138.41 61.8001C138.07 61.7501 137.73 61.7001 137.4 61.6501C137.06 61.6001 136.72 61.5601 136.39 61.5101C136.05 61.4601 135.71 61.4201 135.38 61.3701C135.04 61.3301 134.7 61.2901 134.37 61.2501C134.03 61.2101 133.69 61.1701 133.35 61.1301C133.01 61.0901 132.68 61.0601 132.34 61.0201C132 60.9801 131.66 60.9501 131.32 60.9201C130.98 60.8901 130.64 60.8601 130.3 60.8301C129.96 60.8001 129.62 60.7801 129.28 60.7501C128.94 60.7201 128.6 60.7001 128.26 60.6801C127.92 60.6601 127.58 60.6301 127.24 60.6101C126.9 60.5901 126.56 60.5701 126.22 60.5501C125.88 60.5301 125.54 60.5101 125.2 60.5001C124.86 60.4801 124.52 60.4701 124.18 60.4601C123.84 60.4401 123.5 60.4301 123.16 60.4201C122.82 60.4101 122.48 60.4001 122.14 60.3901C121.8 60.3901 121.46 60.3801 121.12 60.3701C120.78 60.3701 120.44 60.3601 120.09 60.3601C120.07 60.3601 120.04 60.3601 120.02 60.3601C119.68 60.3601 119.34 60.3601 119 60.3601C118.66 60.3601 118.32 60.3701 117.98 60.3801C117.64 60.3901 117.3 60.4001 116.96 60.4101C116.62 60.4201 116.28 60.4301 115.94 60.4401C115.6 60.4601 115.26 60.4701 114.92 60.4901C114.58 60.5101 114.24 60.5201 113.9 60.5401C113.56 60.5601 113.22 60.5701 112.88 60.5901C112.54 60.6101 112.2 60.6301 111.86 60.6601C111.52 60.6801 111.18 60.7101 110.84 60.7301C110.5 60.7601 110.16 60.7801 109.82 60.8101C109.48 60.8401 109.14 60.8701 108.8 60.9001C108.46 60.9301 108.12 60.9701 107.78 61.0001C107.44 61.0401 107.1 61.0701 106.76 61.1101C106.42 61.1501 106.08 61.1901 105.74 61.2301C105.4 61.2701 105.06 61.3101 104.73 61.3501C104.39 61.3901 104.05 61.4401 103.72 61.4801C103.38 61.5301 103.04 61.5701 102.7 61.6301C102.36 61.6801 102.02 61.7301 101.69 61.7801C101.35 61.8301 101.01 61.8801 100.68 61.9401C100.34 61.9901 100.01 62.0501 99.6699 62.1101C99.3299 62.1701 98.9999 62.2301 98.6599 62.2901C98.3199 62.3501 97.9899 62.4101 97.6599 62.4801C97.3199 62.5401 96.9899 62.6101 96.6499 62.6801C96.3199 62.7501 95.9899 62.8101 95.6499 62.8801C95.3199 62.9501 94.9799 63.0201 94.6499 63.0901C94.3099 63.1601 93.9799 63.2301 93.6499 63.3101C93.3199 63.3901 92.9899 63.4601 92.6599 63.5401C92.3299 63.6201 91.9999 63.7001 91.6599 63.7801C91.3299 63.8601 90.9999 63.9401 90.6699 64.0301C90.3399 64.1201 90.0099 64.2001 89.6799 64.2901C89.3499 64.3801 89.0199 64.4701 88.6899 64.5501C88.3599 64.6401 88.0299 64.7301 87.7099 64.8201C87.3799 64.9101 87.0499 65.0001 86.7299 65.1001C86.3999 65.1901 86.0699 65.2901 85.7499 65.3901C85.4299 65.4901 85.0999 65.5901 84.7699 65.6901C84.4499 65.7901 84.1199 65.8901 83.7899 65.9901C83.4699 66.1001 83.1399 66.2001 82.8199 66.3101C82.4999 66.4101 82.1699 66.5201 81.8499 66.6301C81.5299 66.7301 81.1999 66.8501 80.8799 66.9501C80.5499 67.0601 80.2299 67.1801 79.9099 67.2901C79.5899 67.4001 79.2599 67.5201 78.9499 67.6301C78.6299 67.7501 78.3099 67.8701 77.9899 67.9901C77.6699 68.1101 77.3499 68.2301 77.0299 68.3501C76.7099 68.4701 76.3899 68.6001 76.0799 68.7201C75.7599 68.8401 75.4499 68.9701 75.1299 69.1001C74.8099 69.2301 74.4999 69.3601 74.1799 69.4901C73.8599 69.6201 73.5499 69.7501 73.2299 69.8901C72.9099 70.0201 72.5999 70.1601 72.2899 70.2901C71.9799 70.4301 71.6699 70.5601 71.3599 70.7001C71.0499 70.8401 70.7399 70.9801 70.4299 71.1201C70.1199 71.2601 69.8099 71.4001 69.4999 71.5501C69.1899 71.6901 68.8799 71.8301 68.5699 71.9801C68.2599 72.1301 67.9599 72.2701 67.6499 72.4201C67.3399 72.5701 67.0399 72.7201 66.7299 72.8701C66.4199 73.0201 66.1199 73.1701 65.8099 73.3301C65.5099 73.4801 65.2099 73.6401 64.8999 73.7901C64.5999 73.9501 64.2899 74.1101 63.9899 74.2701C63.6899 74.4301 63.3899 74.5901 63.0899 74.7501C62.7899 74.9101 62.4899 75.0701 62.1899 75.2401C61.8899 75.4001 61.5999 75.5701 61.2899 75.7401C60.9899 75.9101 60.6999 76.0801 60.3999 76.2501C60.0999 76.4201 59.8099 76.5901 59.5099 76.7601C59.2099 76.9301 58.9199 77.1101 58.6299 77.2801C58.3399 77.4501 58.0399 77.6301 57.7499 77.8101C57.4599 77.9901 57.1699 78.1601 56.8799 78.3401C56.5899 78.5201 56.2999 78.7001 56.0099 78.8801C55.7199 79.0601 55.4299 79.2501 55.1499 79.4301C54.8599 79.6101 54.5699 79.8001 54.2899 79.9901C54.0099 80.1801 53.7199 80.3701 53.4399 80.5601C53.1499 80.7501 52.8699 80.9401 52.5899 81.1301C52.3099 81.3201 52.0299 81.5101 51.7499 81.7101C51.4699 81.9001 51.1899 82.1001 50.9099 82.3001C50.6299 82.5001 50.3599 82.6901 50.0799 82.8901C49.7999 83.0901 49.5299 83.2901 49.2499 83.4901C48.9699 83.6901 48.6999 83.8901 48.4299 84.0901C48.1599 84.2901 47.8799 84.5001 47.6099 84.7001C47.3399 84.9101 47.0699 85.1101 46.7999 85.3201C46.5299 85.5301 46.2599 85.7401 45.9899 85.9501C45.7199 86.1601 45.4499 86.3701 45.1899 86.5801C44.9199 86.8001 44.6599 87.0101 44.3899 87.2301C44.1199 87.4501 43.8599 87.6601 43.5999 87.8801C43.3399 88.1001 43.0799 88.3201 42.8199 88.5401C42.5599 88.7601 42.2999 88.9801 42.0299 89.2001C41.7699 89.4201 41.5099 89.6501 41.2599 89.8701C41.0099 90.0901 40.7499 90.3201 40.4899 90.5401C40.2399 90.7701 39.9799 90.9901 39.7199 91.2201C39.4699 91.4501 39.2199 91.6801 38.9699 91.9101C38.7199 92.1401 38.4699 92.3701 38.2199 92.6101C37.9699 92.8401 37.7199 93.0701 37.4799 93.3101C37.2299 93.5501 36.9899 93.7801 36.7399 94.0201C36.4899 94.2501 36.2499 94.4901 36.0099 94.7301C35.7699 94.9701 35.5299 95.2101 35.2899 95.4501C35.0499 95.6901 34.8099 95.9301 34.5699 96.1701C34.3299 96.4201 34.0899 96.6601 33.8599 96.9001C33.6199 97.1501 33.3799 97.3901 33.1499 97.6401C32.9199 97.8901 32.6799 98.1401 32.4499 98.3901C32.2199 98.6401 31.9899 98.8901 31.7499 99.1401C31.5199 99.3901 31.2899 99.6401 31.0599 99.9001C30.8299 100.15 30.5999 100.4 30.3799 100.66C30.1499 100.91 29.9299 101.17 29.6999 101.42C29.4799 101.68 29.2499 101.94 29.0299 102.19C28.8099 102.45 28.5799 102.71 28.3699 102.97C28.1499 103.23 27.9299 103.5 27.7099 103.76C27.4999 104.02 27.2799 104.29 27.0599 104.55C26.8399 104.82 26.6299 105.08 26.4099 105.35C26.1999 105.62 25.9799 105.88 25.7799 106.15C25.5699 106.41 25.3599 106.68 25.1499 106.95C24.9399 107.22 24.7399 107.49 24.5299 107.77C24.3199 108.04 24.1199 108.31 23.9199 108.59C23.7199 108.86 23.5099 109.14 23.3099 109.41C23.1099 109.69 22.9099 109.96 22.7099 110.24C22.5099 110.52 22.3199 110.79 22.1199 111.08C21.9199 111.36 21.7299 111.63 21.5299 111.92C21.3299 112.2 21.1399 112.48 20.9499 112.76C20.7599 113.04 20.5699 113.32 20.3799 113.61C20.1899 113.89 19.9999 114.18 19.8099 114.46C19.6299 114.75 19.4399 115.03 19.2499 115.32C19.0599 115.6 18.8799 115.89 18.6999 116.18C18.5199 116.47 18.3399 116.75 18.1599 117.04C17.9799 117.33 17.7999 117.62 17.6199 117.92C17.4399 118.21 17.2699 118.5 17.0899 118.8C16.9199 119.09 16.7399 119.39 16.5699 119.68C16.3999 119.98 16.2299 120.27 16.0599 120.57C15.8899 120.87 15.7199 121.16 15.5599 121.46C15.3899 121.76 15.2199 122.05 15.0599 122.35C14.8999 122.65 14.7299 122.95 14.5699 123.25C14.4099 123.55 14.2499 123.85 14.0899 124.15C13.9299 124.45 13.7699 124.76 13.6199 125.06C13.4599 125.36 13.2999 125.67 13.1499 125.97C12.9899 126.27 12.8399 126.58 12.6899 126.88C12.5399 127.18 12.3899 127.49 12.2399 127.8C12.0899 128.1 11.9399 128.41 11.7899 128.72C11.6399 129.03 11.4999 129.34 11.3499 129.65C11.1999 129.96 11.0699 130.27 10.9199 130.58C10.7799 130.89 10.6399 131.2 10.4999 131.51C10.3599 131.82 10.2199 132.13 10.0899 132.45C9.94987 132.76 9.81987 133.07 9.67987 133.39C9.54987 133.7 9.41988 134.02 9.27988 134.34C9.14988 134.65 9.01989 134.97 8.88989 135.28C8.75989 135.6 8.63989 135.92 8.50989 136.23C8.38989 136.55 8.25988 136.86 8.12988 137.18C8.00988 137.5 7.88987 137.82 7.76987 138.14C7.64987 138.46 7.52988 138.78 7.40988 139.1C7.28988 139.42 7.17989 139.74 7.06989 140.06C6.94989 140.38 6.83989 140.7 6.72989 141.03C6.61989 141.35 6.50987 141.68 6.39987 142C6.28987 142.32 6.18986 142.64 6.07986 142.97C5.97986 143.29 5.86987 143.62 5.76987 143.94C5.65987 144.27 5.55987 144.59 5.45987 144.92C5.35987 145.24 5.25988 145.57 5.15988 145.9C5.05988 146.23 4.96987 146.55 4.86987 146.88C4.76987 147.21 4.67987 147.54 4.58987 147.86C4.49987 148.19 4.40989 148.52 4.31989 148.85C4.22989 149.18 4.14988 149.51 4.05988 149.84C3.96988 150.17 3.88988 150.5 3.80988 150.83C3.71988 151.16 3.63988 151.49 3.55988 151.82C3.47988 152.15 3.39989 152.48 3.31989 152.82C3.23989 153.15 3.16987 153.48 3.08987 153.82C3.01987 154.15 2.93987 154.48 2.86987 154.82C2.79987 155.15 2.72988 155.48 2.65988 155.82C2.58988 156.15 2.51987 156.49 2.45987 156.82C2.38987 157.15 2.32987 157.49 2.26987 157.82C2.19987 158.16 2.13986 158.49 2.07986 158.83C2.01986 159.17 1.95987 159.5 1.89987 159.84C1.83987 160.18 1.78989 160.51 1.72989 160.85C1.66989 161.19 1.61989 161.52 1.56989 161.86C1.51989 162.2 1.46989 162.53 1.41989 162.87C1.36989 163.21 1.31988 163.54 1.27988 163.88C1.23988 164.22 1.18989 164.56 1.13989 164.9C1.09989 165.24 1.04987 165.57 1.01987 165.92C0.979867 166.26 0.939872 166.6 0.899872 166.94C0.859872 167.28 0.819886 167.62 0.789886 167.96C0.789886 168 0.779877 168.04 0.779877 168.08C0.479877 172.13 0.159882 176.17 0.159882 180.29H0.139893V179.72H0.159882C0.159882 175.25 0.509874 170.86 0.839874 166.47C0.849874 166.43 0.849863 166.39 0.859863 166.35C0.899863 165.98 0.939889 165.61 0.979889 165.25C1.01989 164.88 1.05986 164.51 1.10986 164.15C1.14986 163.78 1.19988 163.42 1.24988 163.05C1.29988 162.68 1.34987 162.32 1.39987 161.95C1.44987 161.58 1.49988 161.22 1.55988 160.85C1.61988 160.49 1.66988 160.12 1.71988 159.75C1.77988 159.39 1.83987 159.02 1.89987 158.66C1.95987 158.3 2.01987 157.93 2.08987 157.57C2.14987 157.2 2.20988 156.84 2.27988 156.48C2.34988 156.12 2.40989 155.75 2.47989 155.39C2.54989 155.03 2.61989 154.66 2.69989 154.3C2.76989 153.94 2.83989 153.57 2.91989 153.21C2.99989 152.85 3.06987 152.48 3.14987 152.12C3.22987 151.76 3.30989 151.4 3.38989 151.04C3.46989 150.68 3.54989 150.32 3.63989 149.96C3.71989 149.6 3.80987 149.24 3.89987 148.88C3.98987 148.52 4.07989 148.16 4.16989 147.8C4.25989 147.44 4.34989 147.09 4.44989 146.73C4.53989 146.38 4.63987 146.01 4.73987 145.66C4.83987 145.3 4.92988 144.94 5.02988 144.59C5.12988 144.23 5.22986 143.88 5.32986 143.52C5.42986 143.17 5.53989 142.81 5.63989 142.45C5.74989 142.09 5.85987 141.74 5.95987 141.39C6.06987 141.04 6.17987 140.68 6.29987 140.33C6.40987 139.98 6.51989 139.63 6.63989 139.27C6.74989 138.92 6.86987 138.57 6.98987 138.22C7.10987 137.87 7.22988 137.52 7.34988 137.17C7.46988 136.82 7.58988 136.47 7.71988 136.13C7.83988 135.78 7.96988 135.43 8.09988 135.08C8.22988 134.74 8.35987 134.39 8.48987 134.04C8.61987 133.69 8.74988 133.35 8.87988 133C9.00988 132.66 9.14988 132.31 9.27988 131.97C9.41988 131.63 9.54988 131.28 9.68988 130.94C9.82988 130.6 9.96986 130.26 10.1099 129.91C10.2499 129.57 10.3899 129.23 10.5399 128.89C10.6799 128.55 10.8299 128.21 10.9799 127.87C11.1199 127.53 11.2799 127.19 11.4199 126.85C11.5699 126.51 11.7199 126.17 11.8799 125.84C12.0299 125.5 12.1899 125.17 12.3399 124.83C12.4999 124.49 12.6499 124.16 12.8099 123.83C12.9699 123.5 13.1299 123.16 13.2899 122.83C13.4499 122.5 13.6199 122.17 13.7799 121.83C13.9399 121.5 14.1099 121.17 14.2799 120.84C14.4499 120.51 14.6199 120.18 14.7899 119.86C14.9599 119.53 15.1299 119.2 15.3099 118.88C15.4899 118.55 15.6599 118.23 15.8299 117.9C16.0099 117.57 16.1799 117.25 16.3599 116.93C16.5399 116.61 16.7199 116.28 16.8999 115.96C17.0799 115.64 17.2599 115.31 17.4499 115C17.6299 114.68 17.8199 114.36 17.9999 114.04C18.1899 113.72 18.3799 113.4 18.5699 113.09C18.7599 112.77 18.9499 112.46 19.1399 112.14C19.3399 111.82 19.5299 111.51 19.7199 111.19C19.9099 110.88 20.1099 110.57 20.3099 110.25C20.5099 109.94 20.6999 109.63 20.9099 109.31C21.1099 109 21.3099 108.69 21.5099 108.38C21.7099 108.07 21.9199 107.76 22.1199 107.46C22.3299 107.15 22.5299 106.84 22.7399 106.54C22.9499 106.24 23.1499 105.93 23.3599 105.63C23.5699 105.32 23.7799 105.02 23.9999 104.72C24.2199 104.42 24.4299 104.12 24.6499 103.82C24.8699 103.52 25.0799 103.22 25.2999 102.92C25.5199 102.62 25.7399 102.33 25.9599 102.03C26.1799 101.73 26.3999 101.44 26.6199 101.14C26.8499 100.84 27.0699 100.55 27.2999 100.26C27.5299 99.9701 27.7499 99.6701 27.9799 99.3801C28.2099 99.0901 28.4399 98.8001 28.6699 98.5101C28.8999 98.2201 29.1299 97.9301 29.3699 97.6501C29.5999 97.3601 29.8399 97.0801 30.0699 96.7901C30.2999 96.5101 30.5399 96.2201 30.7799 95.9401C31.0199 95.6601 31.2599 95.3701 31.4999 95.0901C31.7399 94.8101 31.9799 94.5301 32.2299 94.2501C32.4799 93.9701 32.7199 93.6901 32.9599 93.4201C33.2099 93.1401 33.4499 92.8601 33.6999 92.5901C33.9499 92.3201 34.1999 92.0401 34.4499 91.7701C34.6999 91.5001 34.9499 91.2301 35.1999 90.9601C35.4499 90.6901 35.6999 90.4201 35.9599 90.1501C36.2199 89.8801 36.4799 89.6101 36.7299 89.3501C36.9799 89.0801 37.2399 88.8201 37.4999 88.5601C37.7599 88.2901 38.0199 88.0301 38.2799 87.7701C38.5399 87.5101 38.7999 87.2501 39.0699 86.9901C39.3299 86.7301 39.5999 86.4701 39.8599 86.2201C40.1299 85.9601 40.3899 85.7101 40.6599 85.4501C40.9299 85.2001 41.1999 84.9401 41.4699 84.6901C41.7399 84.4401 42.0099 84.1901 42.2899 83.9401C42.5599 83.6901 42.8299 83.4401 43.1099 83.1901C43.3899 82.9401 43.6699 82.7001 43.9399 82.4601C44.2099 82.2101 44.4899 81.9701 44.7699 81.7301C45.0499 81.4901 45.3299 81.2501 45.6099 81.0001C45.8899 80.7601 46.1799 80.5201 46.4599 80.2801C46.7399 80.0401 47.0299 79.8101 47.3099 79.5701C47.5999 79.3401 47.8799 79.1001 48.1699 78.8701C48.4599 78.6401 48.7399 78.4101 49.0299 78.1701C49.3199 77.9401 49.6099 77.7101 49.8999 77.4801C50.1899 77.2501 50.4899 77.0301 50.7799 76.8001C51.0699 76.5701 51.3699 76.3501 51.6599 76.1301C51.9599 75.9001 52.2499 75.6801 52.5499 75.4601C52.8499 75.2401 53.1499 75.0201 53.4399 74.8001C53.7399 74.5801 54.0399 74.3701 54.3399 74.1501C54.6399 73.9301 54.9399 73.7201 55.2499 73.5101C55.5499 73.3001 55.8599 73.0801 56.1599 72.8701C56.4599 72.6601 56.7699 72.4501 57.0699 72.2401C57.3799 72.0301 57.6799 71.8301 57.9899 71.6201C58.2999 71.4201 58.6099 71.2101 58.9199 71.0101C59.2299 70.8101 59.5399 70.6001 59.8499 70.4001C60.1599 70.2001 60.4699 70.0001 60.7899 69.8001C61.0999 69.6001 61.4099 69.4001 61.7299 69.2101C62.0499 69.0201 62.3599 68.8201 62.6799 68.6301C62.9999 68.4401 63.3099 68.2501 63.6299 68.0601C63.9499 67.8701 64.2699 67.6801 64.5899 67.4901C64.9099 67.3001 65.2299 67.1201 65.5499 66.9301C65.8699 66.7501 66.1899 66.5701 66.5099 66.3801C66.8299 66.2001 67.1599 66.0201 67.4799 65.8401C67.7999 65.6601 68.1299 65.4901 68.4499 65.3101C68.7699 65.1301 69.0999 64.9601 69.4299 64.7901C69.7499 64.6101 70.0799 64.4401 70.4099 64.2701C70.7399 64.1001 71.0699 63.9301 71.3999 63.7701C71.7299 63.6001 72.0599 63.4301 72.3899 63.2701C72.7199 63.1101 73.0499 62.9401 73.3899 62.7801C73.7199 62.6201 74.0599 62.4601 74.3899 62.3001C74.7299 62.1401 75.0599 61.9901 75.3899 61.8301C75.7299 61.6701 76.0599 61.5201 76.3999 61.3601C76.7299 61.2101 77.0699 61.0601 77.4099 60.9101C77.7499 60.7601 78.0899 60.6101 78.4299 60.4601C78.7699 60.3101 79.1099 60.1701 79.4499 60.0301C79.7899 59.8901 80.1299 59.7401 80.4699 59.6001C80.8099 59.4601 81.1599 59.3201 81.4999 59.1801C81.8399 59.0401 82.1799 58.9101 82.5299 58.7701C82.8699 58.6301 83.2199 58.5001 83.5699 58.3701C83.9099 58.2401 84.2599 58.1101 84.6099 57.9701C84.9499 57.8401 85.2999 57.7101 85.6499 57.5801C85.9999 57.4601 86.3399 57.3301 86.6899 57.2101C87.0399 57.0901 87.3899 56.9601 87.7399 56.8401C88.0899 56.7201 88.4399 56.6001 88.7899 56.4801C89.1399 56.3601 89.4899 56.2501 89.8399 56.1301C90.1899 56.0101 90.5399 55.9001 90.8999 55.7901C91.2499 55.6801 91.5999 55.5701 91.9599 55.4601C92.3099 55.3501 92.6699 55.2401 93.0199 55.1401C93.3699 55.0401 93.7299 54.9301 94.0799 54.8301C94.4399 54.7301 94.7899 54.6301 95.1499 54.5301C95.5099 54.4301 95.8599 54.3301 96.2199 54.2301C96.5799 54.1301 96.9299 54.0401 97.2899 53.9501C97.6499 53.8601 97.9999 53.7601 98.3599 53.6701C98.7199 53.5801 99.0799 53.4901 99.4399 53.4001C99.7999 53.3101 100.16 53.2201 100.52 53.1401C100.88 53.0501 101.24 52.9701 101.6 52.8901C101.96 52.8101 102.32 52.7301 102.69 52.6501C103.05 52.5701 103.41 52.4901 103.78 52.4201C104.14 52.3501 104.5 52.2701 104.87 52.2001C105.23 52.1301 105.6 52.0601 105.96 51.9901C106.32 51.9201 106.69 51.8501 107.05 51.7901C107.41 51.7201 107.78 51.6601 108.14 51.6001C108.5 51.5401 108.87 51.4801 109.23 51.4201C109.59 51.3601 109.96 51.3001 110.32 51.2401C110.69 51.1901 111.05 51.1301 111.42 51.0801C111.78 51.0201 112.15 50.9701 112.52 50.9201C112.89 50.8701 113.25 50.8201 113.62 50.7701C113.99 50.7201 114.36 50.6801 114.72 50.6301C115.09 50.5901 115.45 50.5401 115.82 50.5101C116.19 50.4701 116.56 50.4301 116.92 50.3901C117.29 50.3501 117.65 50.3101 118.03 50.2801C118.4 50.2501 118.76 50.2101 119.13 50.1801C119.5 50.1501 119.87 50.1201 120.24 50.0901C120.61 50.0601 120.98 50.0401 121.35 50.0101C121.72 49.9901 122.09 49.9601 122.45 49.9401C122.82 49.9201 123.19 49.9001 123.56 49.8801C123.93 49.8601 124.3 49.8401 124.67 49.8301C125.04 49.8101 125.41 49.8001 125.78 49.7801C126.15 49.7701 126.52 49.7601 126.89 49.7501C127.26 49.7401 127.63 49.7301 128 49.7301C128.37 49.7201 128.74 49.7201 129.11 49.7101C129.48 49.7101 129.85 49.7101 130.22 49.7101C130.25 49.7101 130.28 49.7101 130.3 49.7101C130.67 49.7101 131.04 49.7101 131.41 49.7201C131.78 49.7201 132.15 49.7301 132.52 49.7301C132.89 49.7401 133.26 49.7501 133.62 49.7601C133.99 49.7701 134.36 49.7801 134.73 49.7901C135.1 49.8001 135.47 49.8101 135.84 49.8301C136.21 49.8401 136.58 49.8601 136.95 49.8801C137.32 49.9001 137.69 49.9201 138.06 49.9401C138.43 49.9601 138.8 49.9801 139.17 50.0101C139.54 50.0401 139.91 50.0601 140.28 50.0901C140.65 50.1201 141.02 50.1501 141.39 50.1801C141.76 50.2101 142.12 50.2501 142.49 50.2801C142.86 50.3101 143.23 50.3501 143.59 50.3901C143.96 50.4301 144.32 50.4701 144.69 50.5101C145.06 50.5501 145.43 50.6001 145.79 50.6401C146.16 50.6801 146.52 50.7301 146.89 50.7801C147.25 50.8301 147.62 50.8801 147.99 50.9301C148.36 50.9801 148.72 51.0301 149.09 51.0901C149.46 51.1401 149.82 51.2001 150.19 51.2501C150.56 51.3101 150.92 51.3701 151.29 51.4301C151.65 51.4901 152.02 51.5501 152.38 51.6101C152.74 51.6701 153.11 51.7401 153.47 51.8001C153.83 51.8701 154.2 51.9301 154.56 52.0001C154.92 52.0701 155.29 52.1401 155.65 52.2101C156.01 52.2901 156.38 52.3601 156.74 52.4301C157.1 52.5001 157.46 52.5801 157.83 52.6601C158.19 52.7401 158.55 52.8201 158.91 52.9001C159.27 52.9801 159.63 53.0601 159.99 53.1501C160.35 53.2401 160.71 53.3201 161.07 53.4101C161.43 53.5001 161.79 53.5801 162.15 53.6701C162.51 53.7601 162.86 53.8501 163.22 53.9501C163.57 54.0401 163.93 54.1401 164.29 54.2301C164.65 54.3301 165 54.4301 165.36 54.5301C165.72 54.6301 166.07 54.7301 166.43 54.8301C166.78 54.9401 167.14 55.0401 167.49 55.1501C167.85 55.2501 168.2 55.3601 168.55 55.4701C168.9 55.5801 169.26 55.6901 169.61 55.8001C169.97 55.9101 170.32 56.0301 170.67 56.1401C171.02 56.2601 171.37 56.3701 171.72 56.4901C172.07 56.6101 172.42 56.7301 172.77 56.8501C173.12 56.9701 173.47 57.0901 173.82 57.2201C174.17 57.3401 174.52 57.4701 174.86 57.6001C175.21 57.7301 175.56 57.8601 175.9 57.9901C176.24 58.1201 176.59 58.2501 176.94 58.3801C177.29 58.5101 177.63 58.6501 177.97 58.7801C178.31 58.9201 178.66 59.0501 179 59.1901C179.34 59.3301 179.68 59.4701 180.03 59.6101C180.37 59.7501 180.71 59.8901 181.05 60.0401C181.39 60.1901 181.73 60.3301 182.07 60.4801C182.41 60.6301 182.75 60.7801 183.09 60.9301C183.43 61.0801 183.76 61.2301 184.1 61.3801C184.44 61.5401 184.77 61.6901 185.1 61.8401C185.43 62.0001 185.77 62.1501 186.1 62.3101C186.44 62.4701 186.77 62.6301 187.1 62.7901C187.43 62.9501 187.77 63.1201 188.1 63.2801C188.43 63.4401 188.76 63.6101 189.09 63.7801C189.42 63.9501 189.75 64.1201 190.08 64.2901C190.41 64.4601 190.74 64.6301 191.06 64.8101C191.39 64.9801 191.71 65.1601 192.04 65.3301C192.36 65.5101 192.69 65.6801 193.01 65.8601C193.33 66.0401 193.66 66.2201 193.98 66.4001C194.31 66.5801 194.63 66.7701 194.94 66.9501C195.26 67.1301 195.58 67.3201 195.9 67.5101C196.22 67.7001 196.54 67.8901 196.85 68.0801C197.17 68.2701 197.49 68.4601 197.8 68.6501C198.12 68.8501 198.43 69.0401 198.75 69.2301C199.06 69.4201 199.38 69.6201 199.69 69.8201C200 70.0201 200.31 70.2201 200.62 70.4201C200.93 70.6201 201.24 70.8201 201.55 71.0201C201.86 71.2301 202.17 71.4301 202.48 71.6401C202.78 71.8401 203.09 72.0501 203.4 72.2601C203.71 72.4701 204.01 72.6701 204.32 72.8801C204.62 73.0901 204.93 73.3101 205.23 73.5201C205.53 73.7301 205.84 73.9501 206.13 74.1601C206.43 74.3801 206.73 74.5901 207.03 74.8101C207.33 75.0301 207.63 75.2501 207.92 75.4701C208.22 75.6901 208.51 75.9101 208.81 76.1401C209.11 76.3601 209.4 76.5801 209.69 76.8101C209.98 77.0401 210.28 77.2701 210.57 77.4901C210.86 77.7201 211.15 77.9501 211.44 78.1801C211.73 78.4101 212.01 78.6401 212.3 78.8801C212.59 79.1101 212.87 79.3501 213.15 79.5801C213.44 79.8201 213.72 80.0601 214.01 80.3001C214.29 80.5401 214.57 80.7801 214.85 81.0201C215.13 81.2601 215.41 81.5001 215.69 81.7501C215.97 82.0001 216.25 82.2401 216.52 82.4901C216.79 82.7401 217.07 82.9801 217.34 83.2301C217.62 83.4801 217.89 83.7301 218.16 83.9801C218.43 84.2301 218.7 84.4801 218.97 84.7301C219.24 84.9801 219.51 85.2301 219.78 85.4901C220.05 85.7501 220.31 86.0001 220.58 86.2601C220.85 86.5101 221.11 86.7701 221.38 87.0301C221.64 87.2901 221.9 87.5501 222.17 87.8101C222.43 88.0701 222.69 88.3301 222.95 88.5901C223.21 88.8601 223.47 89.1201 223.73 89.3901C223.98 89.6601 224.24 89.9201 224.5 90.1901C224.75 90.4601 225.01 90.7301 225.26 91.0001C225.51 91.2701 225.76 91.5401 226.02 91.8101C226.27 92.0801 226.52 92.3501 226.77 92.6301C227.02 92.9001 227.26 93.1801 227.51 93.4501C227.76 93.7301 228 94.0101 228.24 94.2901C228.48 94.5701 228.72 94.8501 228.96 95.1301C229.2 95.4101 229.44 95.6901 229.68 95.9701C229.91 96.2501 230.15 96.5401 230.39 96.8201C230.62 97.1101 230.86 97.4001 231.09 97.6801C231.32 97.9601 231.56 98.2501 231.79 98.5401C232.02 98.8301 232.25 99.1201 232.48 99.4101C232.71 99.7001 232.94 99.9901 233.16 100.29C233.38 100.58 233.61 100.88 233.83 101.17C234.05 101.46 234.27 101.76 234.49 102.06C234.71 102.36 234.93 102.65 235.15 102.95C235.37 103.25 235.59 103.55 235.8 103.85C236.01 104.15 236.23 104.45 236.45 104.75C236.66 105.05 236.87 105.35 237.08 105.66C237.29 105.96 237.5 106.27 237.71 106.57C237.92 106.88 238.12 107.18 238.33 107.49C238.53 107.8 238.74 108.1 238.94 108.41C239.14 108.72 239.34 109.03 239.55 109.34C239.75 109.65 239.95 109.96 240.14 110.28C240.34 110.59 240.54 110.9 240.73 111.22C240.92 111.53 241.12 111.85 241.31 112.17C241.5 112.49 241.69 112.8 241.88 113.12C242.07 113.44 242.26 113.76 242.44 114.08C242.63 114.4 242.82 114.72 243 115.04C243.18 115.36 243.36 115.68 243.55 116.01C243.73 116.33 243.91 116.65 244.09 116.98C244.26 117.3 244.44 117.63 244.62 117.96C244.8 118.28 244.97 118.61 245.14 118.94C245.32 119.27 245.49 119.6 245.66 119.92C245.83 120.25 246 120.58 246.17 120.9C246.34 121.23 246.5 121.56 246.67 121.89C246.84 122.22 247 122.55 247.16 122.89C247.32 123.23 247.48 123.56 247.64 123.89C247.8 124.22 247.96 124.56 248.11 124.89C248.27 125.23 248.42 125.56 248.57 125.9C248.72 126.24 248.88 126.57 249.02 126.91C249.17 127.25 249.32 127.59 249.47 127.92C249.62 128.26 249.76 128.6 249.91 128.94C250.05 129.28 250.19 129.62 250.34 129.96C250.48 130.3 250.62 130.64 250.76 130.98C250.9 131.32 251.04 131.67 251.17 132.01C251.31 132.35 251.44 132.7 251.58 133.05C251.71 133.4 251.84 133.74 251.98 134.08C252.11 134.43 252.24 134.78 252.36 135.12C252.48 135.47 252.61 135.82 252.74 136.16C252.86 136.51 252.99 136.86 253.11 137.21C253.23 137.56 253.35 137.91 253.47 138.26C253.59 138.61 253.7 138.96 253.82 139.32C253.93 139.67 254.05 140.02 254.16 140.37C254.27 140.72 254.38 141.08 254.49 141.43C254.6 141.78 254.71 142.14 254.81 142.49C254.91 142.84 255.02 143.2 255.12 143.56C255.23 143.92 255.33 144.27 255.43 144.63C255.53 144.98 255.63 145.34 255.72 145.7C255.82 146.05 255.91 146.42 256 146.77C256.1 147.13 256.19 147.49 256.28 147.85C256.37 148.21 256.46 148.56 256.55 148.93C256.64 149.29 256.72 149.65 256.81 150.01C256.9 150.37 256.98 150.73 257.06 151.1C257.14 151.46 257.22 151.82 257.3 152.18C257.38 152.54 257.46 152.9 257.53 153.27C257.6 153.63 257.68 153.99 257.75 154.36C257.82 154.72 257.9 155.09 257.96 155.45C258.03 155.81 258.1 156.18 258.16 156.54C258.23 156.9 258.29 157.27 258.35 157.63C258.41 157.99 258.47 158.36 258.53 158.72C258.59 159.09 258.65 159.45 258.7 159.82C258.76 160.18 258.81 160.55 258.87 160.91C258.92 161.28 258.98 161.64 259.03 162.01C259.08 162.37 259.13 162.74 259.18 163.11C259.23 163.48 259.27 163.84 259.32 164.21C259.36 164.58 259.41 164.94 259.45 165.31C259.49 165.68 259.53 166.04 259.57 166.42C259.61 166.79 259.64 167.15 259.68 167.52C259.71 167.89 259.75 168.26 259.78 168.63C259.81 169 259.84 169.37 259.87 169.74C259.9 170.11 259.93 170.47 259.95 170.85C259.98 171.22 260 171.59 260.02 171.95C260.04 172.32 260.06 172.69 260.08 173.06C260.1 173.43 260.12 173.8 260.13 174.17C260.15 174.54 260.16 174.91 260.17 175.28C260.18 175.65 260.19 176.02 260.2 176.39C260.21 176.76 260.22 177.13 260.22 177.5C260.23 177.87 260.23 178.24 260.23 178.61C260.15 178.93 260.16 179.3 260.15 179.66Z" fill="#010101"/>
</g>
<defs>
<linearGradient id="paint0_linear_27_7" x1="0.0629365" y1="126.5" x2="260.148" y2="126.5" gradientUnits="userSpaceOnUse">
<stop stop-color="#DA4398"/>
<stop offset="0.9994" stop-color="#B46AAB"/>
</linearGradient>
<linearGradient id="paint1_linear_27_7" x1="0.753937" y1="100.719" x2="357.895" y2="100.719" gradientUnits="userSpaceOnUse">
<stop stop-color="#FFF33B"/>
<stop offset="0.0595" stop-color="#FFE029"/>
<stop offset="0.1303" stop-color="#FFD217"/>
<stop offset="0.2032" stop-color="#FEC90E"/>
<stop offset="0.2809" stop-color="#FDC70C"/>
<stop offset="0.6685" stop-color="#F3903F"/>
<stop offset="0.8876" stop-color="#ED683C"/>
<stop offset="1" stop-color="#E93E3A"/>
</linearGradient>
</defs>
</svg>
