<svg width="96" height="96" viewBox="0 0 96 96" fill="none" xmlns="http://www.w3.org/2000/svg">
<path d="M89.8402 0.660004H5.8302C2.7202 0.660004 0.200195 3.17999 0.200195 6.28999V89.87C0.200195 92.98 2.7202 95.5 5.8302 95.5H89.8402C92.9502 95.5 95.4702 92.98 95.4702 89.87V6.28999C95.4702 3.17999 92.9502 0.660004 89.8402 0.660004ZM41.8302 81.57C41.8302 82.38 41.1702 83.04 40.3602 83.04H14.4602C13.6502 83.04 12.9902 82.38 12.9902 81.57V14.28C12.9902 13.47 13.6502 12.81 14.4602 12.81H39.9502C40.7602 12.81 41.4202 13.47 41.4202 14.28V39.89C41.4202 39.89 41.2802 50.91 41.8302 59.56V81.57ZM82.2702 81.57C82.2702 82.74 80.9702 83.44 80.0002 82.8L68.1902 75.08C67.6802 74.74 67.0202 74.76 66.5202 75.12L56.1702 82.6C55.7402 82.92 55.2302 82.94 54.8002 82.78C54.4202 82.51 54.1702 82.07 54.1702 81.57V29.32C55.5702 29.05 57.1302 28.9 58.9302 28.9C67.7702 28.9 82.2702 33.9 82.2702 48V81.57Z" fill="black"/>
</svg>
