<svg width="97" height="175" viewBox="0 0 97 175" fill="none" xmlns="http://www.w3.org/2000/svg">
<path d="M86.2699 127.26C86.2699 130.33 83.7799 132.83 80.6999 132.83C77.6199 132.83 75.1299 130.34 75.1299 127.26C75.1299 124.18 77.6199 121.69 80.6999 121.69C83.7799 121.69 86.2699 124.18 86.2699 127.26Z" fill="url(#paint0_linear_65_16)"/>
<path d="M40.6898 108.9C40.6898 111.97 38.1998 114.47 35.1198 114.47C32.0398 114.47 29.5498 111.98 29.5498 108.9C29.5498 105.82 32.0398 103.33 35.1198 103.33C38.1998 103.33 40.6898 105.82 40.6898 108.9Z" fill="url(#paint1_linear_65_16)"/>
<path d="M48.2101 79.79C22.0601 79.79 0.870117 100.99 0.870117 127.13C0.870117 131.46 1.46012 135.66 2.55012 139.64C9.00012 139.85 14.1701 145.14 14.1701 151.64C14.1701 153.98 13.5001 156.16 12.3401 158.01C21.0201 168.09 33.8701 174.47 48.2201 174.47C74.3701 174.47 95.5601 153.28 95.5601 127.13C95.5601 100.98 74.3601 79.79 48.2201 79.79H48.2101ZM22.1901 108.91C22.1901 101.76 27.9901 95.96 35.1401 95.96C42.2901 95.96 48.0901 101.76 48.0901 108.91C48.0901 116.06 42.2901 121.86 35.1401 121.86C27.9901 121.86 22.1901 116.06 22.1901 108.91ZM44.4001 151.12C40.3201 151.12 37.0201 147.81 37.0201 143.74C37.0201 139.67 40.3301 136.36 44.4001 136.36C48.4701 136.36 51.7801 139.67 51.7801 143.74C51.7801 147.81 48.4701 151.12 44.4001 151.12ZM60.8201 107.21C57.7501 107.21 55.2501 104.72 55.2501 101.64C55.2501 98.56 57.7401 96.07 60.8201 96.07C63.9001 96.07 66.3901 98.56 66.3901 101.64C66.3901 104.72 63.9001 107.21 60.8201 107.21ZM80.7201 138.66C74.4401 138.66 69.3501 133.57 69.3501 127.29C69.3501 121.01 74.4401 115.92 80.7201 115.92C87.0001 115.92 92.0901 121.01 92.0901 127.29C92.0901 133.57 87.0001 138.66 80.7201 138.66Z" fill="url(#paint2_linear_65_16)"/>
<path d="M96.6698 87.88C96.6698 89.3 95.5198 90.46 94.0898 90.46C92.6598 90.46 91.5098 89.31 91.5098 87.88V24.95C91.5098 23.53 92.6598 22.37 94.0898 22.37C95.5198 22.37 96.6698 23.52 96.6698 24.95V87.88Z" fill="#50D086"/>
<path d="M7.2601 87.88C7.2601 89.3 6.1101 90.46 4.6801 90.46C3.2501 90.46 2.1001 89.31 2.1001 87.88V24.95C2.1001 23.53 3.2501 22.37 4.6801 22.37C6.1101 22.37 7.2601 23.52 7.2601 24.95V87.88Z" fill="url(#paint3_linear_65_16)"/>
<path d="M50.64 66.35C50.64 67.77 49.49 68.93 48.06 68.93C46.63 68.93 45.48 67.78 45.48 66.35V3.42003C45.48 2.00003 46.63 0.840027 48.06 0.840027C49.49 0.840027 50.64 1.99003 50.64 3.42003V66.35Z" fill="url(#paint4_linear_65_16)"/>
<defs>
<linearGradient id="paint0_linear_65_16" x1="76.7699" y1="131.19" x2="84.6399" y2="123.32" gradientUnits="userSpaceOnUse">
<stop offset="0.38" stop-color="#5B96F7"/>
<stop offset="1" stop-color="#37CB89"/>
</linearGradient>
<linearGradient id="paint1_linear_65_16" x1="31.1898" y1="112.84" x2="39.0598" y2="104.97" gradientUnits="userSpaceOnUse">
<stop offset="0.38" stop-color="#5B96F7"/>
<stop offset="1" stop-color="#37CB89"/>
</linearGradient>
<linearGradient id="paint2_linear_65_16" x1="14.7401" y1="160.6" x2="81.6901" y2="93.66" gradientUnits="userSpaceOnUse">
<stop stop-color="#5B96F7"/>
<stop offset="0.42" stop-color="#34B1E6"/>
<stop offset="1" stop-color="#37CB89"/>
</linearGradient>
<linearGradient id="paint3_linear_65_16" x1="4.6901" y1="90.45" x2="4.6901" y2="22.37" gradientUnits="userSpaceOnUse">
<stop stop-color="#5B96F7"/>
<stop offset="1" stop-color="#34B1E6"/>
</linearGradient>
<linearGradient id="paint4_linear_65_16" x1="48.06" y1="68.93" x2="48.06" y2="0.850025" gradientUnits="userSpaceOnUse">
<stop offset="0.31" stop-color="#34B1E6"/>
<stop offset="1" stop-color="#37CB89"/>
</linearGradient>
</defs>
</svg>
