<svg width="111" height="111" viewBox="0 0 111 111" fill="none" xmlns="http://www.w3.org/2000/svg">
<path d="M64.75 13.875V32.375C64.75 33.6016 65.2373 34.778 66.1046 35.6454C66.972 36.5127 68.1484 37 69.375 37H87.875" stroke="#D9FF7A" stroke-linecap="round" stroke-linejoin="round"/>
<path d="M41.625 41.625H46.25M41.625 60.125H69.375M41.625 78.625H69.375M78.625 97.125H32.375C29.9217 97.125 27.569 96.1504 25.8343 94.4157C24.0996 92.681 23.125 90.3283 23.125 87.875V23.125C23.125 20.6717 24.0996 18.319 25.8343 16.5843C27.569 14.8496 29.9217 13.875 32.375 13.875H64.75L87.875 37V87.875C87.875 90.3283 86.9004 92.681 85.1657 94.4157C83.431 96.1504 81.0783 97.125 78.625 97.125Z" stroke="#D9FF7A" stroke-width="6" stroke-linecap="round" stroke-linejoin="round"/>
</svg>
