<svg width="358" height="369" viewBox="0 0 358 369" fill="none" xmlns="http://www.w3.org/2000/svg">
<rect width="358" height="369" fill="white"/>
<path d="M117.526 14L81.57 64.642V93.268L50.282 108.15L50 108.018V294.778L171.987 352.409L179.441 355.927L186.896 352.409L308.882 294.778V108.018L308.652 108.126L277.356 93.239V64.642L276.261 63.102L241.398 14L205.441 64.642V64.692L179.277 27.843L153.317 64.409L152.388 63.102L117.526 14ZM123.887 43.417L137.794 63.002H97.258L111.003 43.647L123.887 43.417ZM247.757 43.417L261.667 63.002H221.13L234.872 43.647L247.757 43.417ZM185.638 57.262L199.545 76.846H159.012L172.754 57.49L185.638 57.262ZM93.414 72.873H112.639V137.61L93.414 128.527V72.873ZM122.51 72.873H141.64V151.308L122.51 142.272V72.873ZM217.288 72.873H236.512V142.205L217.288 151.287V72.873ZM246.381 72.873H265.509V128.505L246.381 137.541V72.873ZM155.166 86.716H174.392V166.781L155.166 157.697V86.716ZM184.263 86.716H203.39V157.853L184.263 166.891V86.716ZM277.352 107.992L294.279 114.913L277.352 122.909V107.992ZM81.57 108.018V122.933L64.647 114.937L81.57 108.018ZM64.908 131.549L171.987 182.134V335.918L64.907 285.334L64.908 131.549ZM293.973 131.549V285.334L186.896 335.918V182.133L293.973 131.549Z" fill="black"/>
</svg>
