<svg width="194" height="238" viewBox="0 0 194 238" fill="none" xmlns="http://www.w3.org/2000/svg">
<path d="M183.977 20.8186C179.176 8.70294 167.355 0.138672 153.528 0.138672H32.7578C14.6675 0.138672 0 14.8062 0 32.8964V193.043C0 202.228 3.77858 210.527 9.86671 216.472C14.6751 228.587 26.503 237.152 40.3301 237.152H161.101C179.191 237.152 193.851 222.492 193.851 204.401V44.2549C193.851 35.0697 190.072 26.7629 183.977 20.8186ZM167.348 193.043C167.348 200.661 161.146 206.862 153.528 206.862H32.7578C30.5239 206.862 28.4113 206.332 26.5409 205.378C22.0278 203.107 18.9308 198.427 18.9308 193.043V32.8964C18.9308 25.2711 25.1325 19.0694 32.7578 19.0694H153.528C160.813 19.0694 166.803 24.7411 167.31 31.912C167.333 32.2377 167.348 32.5633 167.348 32.8964V193.043Z" fill="white"/>
<path d="M84.7576 37.9358L75.3465 39.5952C72.7971 40.0448 71.0949 42.4759 71.5444 45.0252L96.0834 184.193C96.5329 186.742 98.964 188.444 101.513 187.995L110.924 186.335C113.474 185.886 115.176 183.455 114.727 180.905L90.1876 41.7379C89.738 39.1886 87.3069 37.4863 84.7576 37.9358Z" fill="white"/>
</svg>
