<svg width="407" height="463" viewBox="0 0 407 463" fill="none" xmlns="http://www.w3.org/2000/svg">
<path d="M0.0164046 231.452V128.536C-0.152804 124.019 0.989966 119.549 3.30655 115.668C5.62314 111.786 9.01436 108.659 13.0702 106.664C28.8365 97.3387 44.7724 88.183 60.7082 79.0274L113.941 48.339L148.694 27.654L190.229 3.74751C194.05 1.30052 198.492 0 203.029 0C207.566 0 212.008 1.30052 215.828 3.74751L286.861 44.7784L352.13 82.5879C366.371 90.7263 380.442 98.6951 394.513 107.003C398.228 109.083 401.299 112.144 403.392 115.852C405.485 119.56 406.519 123.772 406.38 128.027V334.708C406.538 338.966 405.512 343.186 403.418 346.897C401.323 350.608 398.24 353.666 394.513 355.732L347.384 383.029L304.662 407.783L240.41 445.084L216.506 458.648C212.531 461.184 207.913 462.531 203.198 462.531C198.483 462.531 193.866 461.184 189.89 458.648L131.741 424.738L78.6784 393.88L25.785 363.531C21.2077 360.818 16.4608 358.275 11.8835 355.393C8.34386 353.172 5.44807 350.062 3.48484 346.373C1.52161 342.684 0.559531 338.545 0.694524 334.369L0.0164046 231.452ZM43.7552 231.452V308.936C43.5762 313.414 44.6772 317.849 46.9292 321.723C49.1812 325.597 52.4908 328.748 56.4699 330.808L128.181 372.348L190.568 407.783C194.422 410.225 198.89 411.522 203.453 411.522C208.015 411.522 212.483 410.225 216.337 407.783L300.254 359.123C317.207 349.797 332.634 340.303 348.909 331.147C353.448 328.903 357.232 325.38 359.792 321.011C362.353 316.642 363.579 311.62 363.319 306.562V153.799C363.552 149.238 362.52 144.703 360.336 140.693C358.151 136.683 354.901 133.356 350.944 131.079L328.057 119.55L282.115 93.1L216.506 54.1036C214.2 52.8124 211.755 51.7885 209.217 51.0517C205.909 50.3483 202.495 50.316 199.175 50.9567C195.855 51.5974 192.698 52.8982 189.89 54.7818L129.707 89.5394C105.973 103.273 82.408 117.176 58.5043 130.57C53.8653 132.888 50.0099 136.518 47.4177 141.01C44.8255 145.502 43.6108 150.656 43.9247 155.833C43.9247 181.096 43.7552 206.359 43.7552 231.622V231.452Z" fill="#5C6BC0"/>
<path d="M169.546 350.136C165.992 350.146 162.525 349.037 159.635 346.968C156.745 344.9 154.578 341.975 153.441 338.607L123.434 248.237H25.9545C21.4583 248.237 17.1462 246.451 13.9669 243.271C10.7876 240.092 9.00146 235.779 9.00146 231.282C9.00146 226.786 10.7876 222.473 13.9669 219.293C17.1462 216.114 21.4583 214.327 25.9545 214.327H135.64C139.215 214.33 142.698 215.463 145.591 217.564C148.483 219.665 150.638 222.627 151.746 226.026L169.546 279.604L221.253 124.127C222.368 120.735 224.525 117.782 227.417 115.688C230.309 113.594 233.788 112.467 237.359 112.467C240.929 112.467 244.408 113.594 247.3 115.688C250.192 117.782 252.349 120.735 253.464 124.127L284.318 214.327H380.442C384.938 214.327 389.25 216.114 392.43 219.293C395.609 222.473 397.395 226.786 397.395 231.282C397.395 235.779 395.609 240.092 392.43 243.271C389.25 246.451 384.938 248.237 380.442 248.237H271.434C267.88 248.247 264.413 247.138 261.523 245.069C258.633 243.001 256.466 240.076 255.329 236.708L237.359 183.13L185.652 338.607C184.515 341.975 182.348 344.9 179.458 346.968C176.568 349.037 173.101 350.146 169.546 350.136Z" fill="#5C6BC0"/>
</svg>
