<svg role="img" viewBox="0 0 256 256" xmlns="http://www.w3.org/2000/svg" id="Vaultwarden--Streamline-Simple-Icons" height="256" width="256"><desc>Vaultwarden Streamline Icon: https://streamlinehq.com</desc><title>Vaultwarden</title><path d="M123.09866666666666 4.7754666666666665c-1.5253333333333332 2.5397333333333334 -3.5562666666666662 5.588266666666667 -4.674133333333333 6.705066666666667 -1.8293333333333335 1.9306666666666665 -1.9306666666666665 1.8293333333333335 -7.822933333333333 -3.9626666666666663 -7.111466666666666 -7.110399999999999 -8.229333333333333 -6.907733333333333 -11.584 2.235733333333333 -1.4208 3.7589333333333332 -3.1466666666666665 6.3999999999999995 -4.570666666666666 7.2128 -2.032 1.0165333333333333 -3.0464 0.7114666666666666 -8.126933333333334 -2.9450666666666665 -8.5344 -5.994666666666667 -10.057599999999999 -5.080533333333333 -11.684266666666666 6.602666666666666 -0.4053333333333333 2.9471999999999996 -1.2191999999999998 5.080533333333333 -2.2346666666666666 5.486933333333333 -0.8128 0.30506666666666665 -4.266666666666667 -0.7114666666666666 -7.518933333333333 -2.336 -8.330666666666666 -3.963733333333333 -9.549866666666667 -3.0485333333333333 -9.6512 6.602666666666666 0 3.9626666666666663 -0.5077333333333334 7.720533333333333 -1.0154666666666667 8.229333333333333 -0.7114666666666666 0.7114666666666666 -3.3536 0.5077333333333334 -8.330666666666666 -0.7104 -9.753599999999999 -2.3370666666666664 -10.363733333333332 -1.728 -8.026666666666666 8.025599999999999 1.2181333333333333 4.978133333333333 1.4218666666666666 7.620266666666667 0.7104 8.330666666666666 -0.5077333333333334 0.5087999999999999 -4.266666666666667 1.0165333333333333 -8.229333333333333 1.0165333333333333 -9.752533333333332 0.10133333333333333 -10.5664 1.3205333333333331 -6.501333333333333 9.652266666666666 3.9616 8.330666666666666 2.946133333333333 10.769066666666667 -4.7754666666666665 11.785599999999999 -11.380266666666666 1.6245333333333332 -12.090666666666666 3.0474666666666668 -5.792 11.479466666666667 5.080533333333333 6.705066666666667 4.7754666666666665 7.722666666666666 -3.6575999999999995 10.769066666666667 -9.041066666666666 3.456 -9.2448 4.5717333333333325 -2.1333333333333333 11.684266666666666 5.792 5.892266666666666 5.893333333333333 5.994666666666667 3.9626666666666663 7.822933333333333 -1.1168 1.1178666666666666 -4.165333333333333 3.1498666666666666 -6.705066666666667 4.674133333333333 -6.299733333333333 3.656533333333333 -6.299733333333333 6.0949333333333335 0 9.752533333333332 2.5397333333333334 1.5253333333333332 5.588266666666667 3.5551999999999997 6.705066666666667 4.673066666666666 1.9306666666666665 1.8293333333333335 1.8293333333333335 1.9306666666666665 -3.9626666666666663 7.824 -7.111466666666666 7.111466666666666 -6.907733333333333 8.229333333333333 2.235733333333333 11.582933333333333 3.76 1.4208 6.3999999999999995 3.147733333333333 7.2128 4.570666666666666 1.0165333333333333 2.032 0.7114666666666666 3.0474666666666668 -2.9450666666666665 8.128 -5.994666666666667 8.533333333333333 -5.080533333333333 10.056533333333332 6.603733333333333 11.6832 2.946133333333333 0.4053333333333333 5.079466666666667 1.2191999999999998 5.4858666666666664 2.2346666666666666 0.30506666666666665 0.8138666666666667 -0.7104 4.266666666666667 -2.336 7.52 -3.963733333333333 8.3296 -3.0485333333333333 9.549866666666667 6.602666666666666 9.6512 3.9626666666666663 0 7.722666666666666 0.5077333333333334 8.229333333333333 1.0144 0.7114666666666666 0.7114666666666666 0.5077333333333334 3.3536 -0.7104 8.332799999999999 -2.336 9.752533333333332 -1.728 10.362666666666666 8.025599999999999 8.025599999999999 4.978133333333333 -1.2191999999999998 7.620266666666667 -1.4229333333333332 8.331733333333332 -0.7114666666666666 0.5077333333333334 0.5077333333333334 1.0154666666666667 4.266666666666667 1.0154666666666667 8.229333333333333 0.10133333333333333 9.753599999999999 1.3215999999999999 10.5664 9.652266666666666 6.5024 8.330666666666666 -3.9626666666666663 10.769066666666667 -2.946133333333333 11.785599999999999 4.7744 1.6256 11.381333333333332 3.0474666666666668 12.090666666666666 11.479466666666667 5.792 6.705066666666667 -5.080533333333333 7.722666666666666 -4.7754666666666665 10.770133333333334 3.658666666666667 3.4538666666666664 9.041066666666666 4.469333333333333 9.2448 11.785599999999999 2.0298666666666665 7.110399999999999 -6.907733333333333 6.501333333333333 -7.009066666666667 12.3936 2.9471999999999996 3.658666666666667 6.197333333333333 6.096 6.197333333333333 9.754666666666665 0 5.8911999999999995 -9.956266666666666 5.2821333333333325 -9.856 12.3936 -2.9471999999999996 7.316266666666666 7.214933333333333 8.330666666666666 7.0112 11.684266666666666 -2.1333333333333333 1.4218666666666666 -3.7578666666666667 3.1488 -6.3999999999999995 4.5717333333333325 -7.2128 2.032 -1.0165333333333333 3.0485333333333333 -0.7114666666666666 8.128 2.946133333333333 8.533333333333333 5.994666666666667 10.058666666666666 5.079466666666667 11.6832 -6.602666666666666 0.4064 -2.9471999999999996 1.2191999999999998 -5.080533333333333 2.235733333333333 -5.486933333333333 0.8128 -0.30506666666666665 4.266666666666667 0.7104 7.5178666666666665 2.336 8.330666666666666 3.9626666666666663 9.550933333333333 3.0474666666666668 9.653333333333332 -6.602666666666666 0 -3.9626666666666663 0.5055999999999999 -7.722666666666666 1.0144 -8.2304 0.7114666666666666 -0.7114666666666666 3.3525333333333336 -0.5077333333333334 8.330666666666666 0.7114666666666666 9.754666666666665 2.336 10.363733333333332 1.728 8.026666666666666 -8.025599999999999 -1.2191999999999998 -4.9792 -1.4218666666666666 -7.621333333333333 -0.7114666666666666 -8.332799999999999 0.5087999999999999 -0.5066666666666666 4.266666666666667 -1.0144 8.229333333333333 -1.0144 9.753599999999999 -0.10133333333333333 10.5664 -1.3205333333333331 6.503466666666666 -9.653333333333332 -3.9626666666666663 -8.3296 -2.9471999999999996 -10.769066666666667 4.7744 -11.784533333333332 11.378133333333333 -1.6245333333333332 12.089599999999999 -3.0474666666666668 5.792 -11.479466666666667 -5.080533333333333 -6.706133333333334 -4.776533333333333 -7.722666666666666 3.656533333333333 -10.770133333333334 9.042133333333332 -3.4538666666666664 9.245866666666666 -4.469333333333333 2.032 -11.786666666666665 -6.9088 -7.110399999999999 -7.010133333333333 -6.501333333333333 2.946133333333333 -12.392533333333333 3.1498666666666666 -1.9306666666666665 4.674133333333333 -3.456 4.674133333333333 -4.877866666666666 0 -1.4229333333333332 -1.5253333333333332 -2.9471999999999996 -4.674133333333333 -4.875733333333333 -9.956266666666666 -5.893333333333333 -9.856 -5.2842666666666664 -2.946133333333333 -12.395733333333332 7.213866666666666 -7.315199999999999 7.010133333333333 -8.330666666666666 -2.1333333333333333 -11.6832 -3.7589333333333332 -1.4229333333333332 -6.401066666666666 -3.1498666666666666 -7.213866666666666 -4.5728 -1.0154666666666667 -2.032 -0.7114666666666666 -3.0474666666666668 2.9471999999999996 -8.126933333333334 5.994666666666667 -8.5344 5.0784 -10.057599999999999 -6.604799999999999 -11.684266666666666 -2.946133333333333 -0.4053333333333333 -5.079466666666667 -1.2191999999999998 -5.4858666666666664 -2.235733333333333 -0.30506666666666665 -0.8128 0.7114666666666666 -4.266666666666667 2.336 -7.5178666666666665 3.9626666666666663 -8.330666666666666 3.0485333333333333 -9.549866666666667 -6.602666666666666 -9.653333333333332 -3.9626666666666663 0 -7.7216 -0.5055999999999999 -8.2304 -1.0144 -0.7104 -0.7104 -0.5077333333333334 -3.3525333333333336 0.7114666666666666 -8.330666666666666 2.336 -9.752533333333332 1.728 -10.362666666666666 -8.025599999999999 -8.025599999999999 -4.9792 1.2181333333333333 -7.620266666666667 1.4218666666666666 -8.330666666666666 0.7104 -0.5098666666666667 -0.5087999999999999 -1.0165333333333333 -4.266666666666667 -1.0165333333333333 -8.229333333333333 -0.10133333333333333 -9.753599999999999 -1.3205333333333331 -10.5664 -9.653333333333332 -6.5024 -8.3296 3.9616 -10.768 2.9471999999999996 -11.783466666666666 -4.7754666666666665 -1.6256 -11.378133333333333 -3.0485333333333333 -12.089599999999999 -11.480533333333334 -5.792 -6.706133333333334 5.0816 -7.722666666666666 4.776533333333333 -10.769066666666667 -3.656533333333333 -3.456 -9.041066666666666 -4.5728 -9.2448 -11.684266666666666 -2.1333333333333333 -5.893333333333333 5.792 -5.994666666666667 5.893333333333333 -7.824 3.9626666666666663 -1.1168 -1.1178666666666666 -3.1488 -4.165333333333333 -4.672 -6.705066666666667C130.92159999999998 1.5242666666666667 129.39626666666666 0 127.9744 0c-1.4218666666666666 0 -2.9450666666666665 1.5242666666666667 -4.875733333333333 4.7754666666666665zm9.956266666666666 20.624c1.1178666666666666 1.1178666666666666 2.032 3.3525333333333336 2.032 5.079466666666667 0 1.728 -0.9141333333333332 3.9626666666666663 -2.032 5.080533333333333 -4.369066666666667 4.367999999999999 -12.192 1.1178666666666666 -12.192 -5.080533333333333 0 -3.861333333333333 3.2512 -7.111466666666666 7.111466666666666 -7.111466666666666 1.728 0 3.9626666666666663 0.9141333333333332 5.080533333333333 2.032zM117.40799999999999 42.67093333333333c9.856 9.549866666666667 11.277866666666664 9.549866666666667 21.1328 0l7.315199999999999 -7.111466666666666 7.111466666666666 2.032c8.128 2.2346666666666666 20.726399999999998 7.6192 20.726399999999998 8.9408 0 0.4053333333333333 -9.549866666666667 28.039466666666662 -21.234133333333332 61.262933333333336 -11.6832 33.22239999999999 -21.8432 62.27839999999999 -22.453333333333333 64.61546666666666 -0.7104 2.4383999999999997 -1.6256 4.369066666666667 -2.032 4.369066666666667 -0.4053333333333333 0 -1.2191999999999998 -1.728 -1.728 -3.7589333333333332 -0.608 -2.1333333333333333 -10.666666666666666 -31.394133333333333 -22.452266666666667 -65.12426666666667 -11.885866666666667 -33.73013333333333 -21.538133333333334 -61.568 -21.538133333333334 -61.77066666666667 0 -1.2191999999999998 22.554666666666666 -9.956266666666666 27.33013333333333 -10.465066666666665 0.304 -0.10133333333333333 3.7589333333333332 3.0474666666666668 7.821866666666666 7.010133333333333zm-35.660799999999995 102.41066666666667c14.427733333333332 40.435199999999995 25.907199999999996 73.6576 25.6032 73.96266666666666 -0.7114666666666666 0.8128 -11.480533333333334 -2.336 -16.051199999999998 -4.7754666666666665 -3.658666666666667 -1.8293333333333335 -3.76 -2.032 -5.080533333333333 -10.666666666666666 -0.8138666666666667 -5.589333333333333 -2.0330666666666666 -9.653333333333332 -3.2522666666666664 -11.277866666666664 -2.0309333333333335 -2.5397333333333334 -2.336 -2.5397333333333334 -9.2448 -1.8293333333333335 -15.239466666666667 1.728 -14.629333333333332 1.9306666666666665 -20.624 -6.0949333333333335 -6.5024 -8.635733333333333 -12.597333333333333 -20.726399999999998 -15.544533333333334 -30.98773333333333 -1.728 -5.6895999999999995 -2.336 -11.379199999999999 -2.7424 -22.350933333333334l-0.5087999999999999 -14.7328 9.143466666666665 -4.875733333333333c12.293333333333333 -6.3999999999999995 12.597333333333333 -7.518933333333333 6.298666666666667 -20.01493333333333 -4.570666666666666 -9.042133333333332 -4.570666666666666 -8.533333333333333 1.3226666666666667 -17.0688 1.6245333333333332 -2.4383999999999997 3.351466666666666 -4.064 3.7578666666666667 -3.5562666666666662 0.4053333333333333 0.4064 12.497066666666665 33.831466666666664 26.922666666666665 74.2688Zm126.08319999999999 -66.24106666666665 2.5408 4.266666666666667 -4.166399999999999 8.229333333333333c-6.298666666666667 12.597333333333333 -5.994666666666667 13.7152 6.197333333333333 20.116266666666665l9.043199999999999 4.7744v11.480533333333334c0 13.309866666666666 -1.8293333333333335 23.672533333333334 -6.197333333333333 34.74666666666666 -3.3536 8.431999999999999 -10.058666666666666 19.608533333333334 -15.445333333333332 25.907199999999996l-3.4528 4.064 -8.025599999999999 -1.2191999999999998c-4.369066666666667 -0.7104 -9.245866666666666 -1.2181333333333333 -10.769066666666667 -1.2181333333333333 -4.266666666666667 0 -6.402133333333333 3.7578666666666667 -7.824 13.7152l-1.3205333333333331 8.8384 -5.384533333333334 2.336c-6.197333333333333 2.744533333333333 -13.716266666666666 4.9792 -14.427733333333332 4.166399999999999 -0.4053333333333333 -0.4053333333333333 42.773333333333326 -122.93226666666666 51.714133333333336 -146.90986666666666l1.0154666666666667 -2.5397333333333334 2.032 2.5397333333333334c1.1178666666666666 1.3205333333333331 3.1498666666666666 4.369066666666667 4.469333333333333 6.706133333333334zM40.09173333333333 92.96c4.776533333333333 4.674133333333333 1.9306666666666665 11.684266666666666 -4.773333333333333 11.684266666666666 -4.266666666666667 0 -6.909866666666667 -2.5397333333333334 -6.909866666666667 -6.705066666666667 0 -6.705066666666667 7.0112 -9.753599999999999 11.684266666666666 -4.9792zm183.69066666666666 -1.4208c2.9450666666666665 1.6245333333333332 3.7578666666666667 2.8437333333333332 3.7578666666666667 6.398933333333333 0 4.064 -2.6421333333333332 6.706133333333334 -6.8064 6.706133333333334 -6.8074666666666666 0 -9.753599999999999 -6.9088 -4.877866666666666 -11.684266666666666 2.7434666666666665 -2.8437333333333332 4.5728 -3.1488 7.925333333333333 -1.4208zM77.17546666666667 204.3125333333333c3.6575999999999995 8.737066666666667 -8.839466666666667 14.1216 -12.903466666666667 5.486933333333333 -1.5242666666666667 -3.1498666666666666 -1.5242666666666667 -3.658666666666667 0.10133333333333333 -6.097066666666667 3.4549333333333334 -5.2821333333333325 10.5664 -4.9770666666666665 12.799999999999999 0.6101333333333333zm112.672 -2.7434666666666665c2.5386666666666664 2.032 3.2501333333333333 5.589333333333333 1.6245333333333332 8.738133333333334 -4.165333333333333 8.126933333333334 -16.256 2.336 -12.698666666666664 -5.994666666666667 1.8272 -4.5717333333333325 7.111466666666666 -5.892266666666666 11.074133333333332 -2.7434666666666665z" fill="#000000" stroke-width="10.6667"></path></svg>