<svg width="377" height="185" viewBox="0 0 377 185" fill="none" xmlns="http://www.w3.org/2000/svg">
<rect width="377" height="185" rx="32" fill="#FF85FB"/>
<path fill-rule="evenodd" clip-rule="evenodd" d="M65.5029 133.744L39 51H58.7866L84.2101 133.744H65.5029ZM83.7915 106.625L100.399 51H119.945L96.3421 124.692L83.7915 106.625ZM189.738 133.744H127.381V51H189.259V68.3876H145.968V83.498H184.102V99.9262H145.968V116.356H189.738V133.744ZM220.078 105.802V133.744H201.491V51H235.428C245.42 51 253.056 53.4771 258.333 58.4346C263.609 63.3905 266.246 70.0275 266.246 78.3406C266.246 86.6555 263.609 93.3115 258.333 98.3069C255.776 100.729 252.665 102.562 249.003 103.811L268.525 133.744H247.66L230.746 105.802H220.078ZM220.078 68.3876V88.4142H234.348C238.905 88.4142 242.202 87.5547 244.242 85.8355C246.28 84.1164 247.3 81.6187 247.3 78.3406C247.3 75.0626 246.28 72.5855 244.242 70.906C242.202 69.2265 238.905 68.3876 234.348 68.3876H220.078ZM296.226 68.3876H272.242V51H338.677V68.3876H314.693V133.744H296.226V68.3876Z" fill="black"/>
</svg>
